<svg width="579" height="579" viewBox="0 0 579 579" fill="none" xmlns="http://www.w3.org/2000/svg">
<path d="M437.038 151.187L424.874 164.146L423.147 162.525L426.006 146.406L416.623 156.401L414.906 154.788L427.07 141.83L428.788 143.443L425.931 159.613L435.338 149.592L437.038 151.187Z" fill="#E6E6E6" fill-opacity="0.4"/>
<path d="M442.053 157.315L428.835 169.198L427.26 167.446L440.478 155.563L442.053 157.315ZM441.085 168.198L439.651 169.488L434.33 163.569L435.764 162.28L441.085 168.198ZM447.839 163.752L446.405 165.041L440.276 158.224L441.71 156.934L447.839 163.752Z" fill="#E6E6E6" fill-opacity="0.4"/>
<path d="M453.647 171.878L439.559 182.715L438.145 180.876L452.233 170.04L453.647 171.878ZM457.13 176.406L455.601 177.582L447.228 166.697L448.757 165.521L457.13 176.406Z" fill="#E6E6E6" fill-opacity="0.4"/>
<path d="M457.272 209.124L455.57 210.006L451.482 202.115L453.184 201.233L457.272 209.124ZM467.477 194.351L451.696 202.527L450.612 200.435L466.394 192.259L467.477 194.351Z" fill="#E6E6E6" fill-opacity="0.4"/>
<path d="M462.779 222.083L461.07 222.805L456.542 212.089L458.038 211.457L466.275 214.298C467.288 214.648 468.126 214.894 468.788 215.039C469.46 215.188 470.029 215.248 470.494 215.219C470.969 215.195 471.421 215.093 471.848 214.912C472.388 214.684 472.828 214.366 473.167 213.957C473.518 213.553 473.734 213.082 473.816 212.543C473.898 212.005 473.81 211.433 473.554 210.825C473.247 210.098 472.848 209.551 472.357 209.184C471.877 208.822 471.335 208.627 470.731 208.599C470.128 208.571 469.5 208.695 468.848 208.971L467.969 206.89C468.891 206.501 469.82 206.347 470.755 206.429C471.691 206.511 472.552 206.854 473.337 207.458C474.13 208.06 474.772 208.941 475.263 210.103C475.7 211.138 475.89 212.1 475.833 212.99C475.784 213.877 475.511 214.654 475.016 215.323C474.532 215.996 473.851 216.517 472.974 216.888C472.495 217.09 471.972 217.214 471.408 217.258C470.854 217.306 470.274 217.291 469.666 217.212C469.061 217.141 468.444 217.017 467.813 216.842C467.186 216.674 466.555 216.477 465.92 216.25L459.311 213.874L462.779 222.083Z" fill="#E6E6E6" fill-opacity="0.4"/>
<path d="M465.714 236.666L464.682 233.102L466.53 232.592L467.555 236.133C467.908 237.353 468.456 238.295 469.199 238.961C469.95 239.625 470.846 240.027 471.886 240.166C472.936 240.311 474.083 240.204 475.326 239.844L476.369 239.542C477.347 239.259 478.18 238.891 478.871 238.437C479.569 237.98 480.114 237.45 480.507 236.845C480.907 236.237 481.149 235.566 481.233 234.83C481.318 234.102 481.239 233.316 480.995 232.472L479.881 228.626L481.734 228.089L482.847 231.935C483.171 233.053 483.279 234.128 483.17 235.159C483.07 236.187 482.764 237.136 482.253 238.004C481.752 238.878 481.057 239.638 480.168 240.285C479.287 240.93 478.229 241.431 476.994 241.788L475.974 242.084C474.739 242.441 473.573 242.584 472.476 242.511C471.387 242.437 470.396 242.16 469.504 241.682C468.613 241.211 467.843 240.553 467.191 239.708C466.55 238.868 466.058 237.854 465.714 236.666ZM482.104 229.367L465.031 234.309L464.376 232.046L481.449 227.104L482.104 229.367Z" fill="#E6E6E6" fill-opacity="0.4"/>
<path d="M469.5 252.903C469.316 252.001 469.301 251.153 469.454 250.358C469.617 249.569 469.924 248.854 470.374 248.214C470.827 247.582 471.407 247.048 472.116 246.613C472.824 246.177 473.633 245.867 474.542 245.681L475.044 245.579C476.097 245.364 477.065 245.328 477.95 245.472C478.843 245.613 479.631 245.893 480.314 246.31C480.997 246.727 481.555 247.244 481.989 247.862C482.422 248.479 482.713 249.151 482.861 249.876C483.05 250.801 483.053 251.631 482.871 252.366C482.69 253.109 482.357 253.754 481.87 254.302C481.392 254.848 480.788 255.304 480.056 255.669C479.333 256.033 478.517 256.307 477.608 256.493L476.615 256.695L474.643 247.031L476.449 246.663L477.97 254.114L478.137 254.08C478.705 253.931 479.239 253.697 479.739 253.379C480.24 253.069 480.622 252.659 480.883 252.149C481.144 251.639 481.198 251.005 481.043 250.247C480.94 249.745 480.738 249.305 480.437 248.926C480.143 248.546 479.758 248.246 479.282 248.028C478.805 247.81 478.251 247.678 477.619 247.632C476.987 247.587 476.28 247.644 475.498 247.804L474.996 247.906C474.382 248.031 473.821 248.233 473.313 248.511C472.815 248.796 472.395 249.143 472.055 249.553C471.717 249.971 471.48 250.438 471.345 250.956C471.212 251.482 471.207 252.047 471.33 252.653C471.49 253.435 471.784 254.064 472.214 254.541C472.644 255.018 473.167 255.406 473.784 255.703L472.993 257.26C472.514 257.067 472.039 256.795 471.568 256.442C471.097 256.09 470.678 255.623 470.31 255.042C469.944 254.469 469.674 253.756 469.5 252.903Z" fill="#E6E6E6" fill-opacity="0.4"/>
<path d="M489.181 260.834L471.589 263.368L471.253 261.036L488.845 258.502L489.181 260.834ZM482.329 269.344L480.42 269.619L479.285 261.742L481.194 261.467L482.329 269.344ZM490.415 269.4L488.506 269.675L487.199 260.601L489.108 260.326L490.415 269.4Z" fill="#E6E6E6" fill-opacity="0.4"/>
<path d="M486.309 276.705L473.166 278.017L472.941 275.758L486.084 274.446L486.309 276.705ZM489.553 273.928C489.917 273.892 490.236 273.97 490.509 274.164C490.782 274.366 490.941 274.685 490.985 275.122C491.027 275.552 490.935 275.892 490.706 276.144C490.479 276.404 490.183 276.552 489.818 276.588C489.47 276.623 489.159 276.535 488.884 276.326C488.619 276.123 488.464 275.807 488.422 275.378C488.378 274.941 488.466 274.597 488.687 274.346C488.916 274.102 489.205 273.963 489.553 273.928Z" fill="#E6E6E6" fill-opacity="0.4"/>
<path d="M478.764 300.519L478.681 302.861C477.563 302.7 476.57 302.344 475.702 301.792C474.834 301.24 474.156 300.48 473.669 299.51C473.19 298.54 472.975 297.344 473.025 295.921C473.062 294.88 473.29 293.939 473.711 293.099C474.131 292.267 474.709 291.558 475.446 290.973C476.192 290.389 477.074 289.947 478.094 289.649C479.122 289.359 480.259 289.236 481.503 289.28L483.272 289.342C484.516 289.386 485.637 289.588 486.634 289.949C487.639 290.318 488.493 290.824 489.195 291.468C489.897 292.119 490.427 292.891 490.787 293.783C491.147 294.675 491.307 295.67 491.269 296.768C491.221 298.11 490.93 299.236 490.393 300.145C489.856 301.055 489.131 301.75 488.219 302.231C487.314 302.72 486.274 303.006 485.098 303.086L485.181 300.744C486.014 300.659 486.733 300.473 487.338 300.185C487.95 299.897 488.429 299.474 488.775 298.916C489.12 298.358 489.309 297.62 489.341 296.7C489.369 295.912 489.243 295.211 488.963 294.599C488.683 293.994 488.273 293.479 487.734 293.053C487.195 292.635 486.543 292.311 485.778 292.081C485.012 291.85 484.158 291.718 483.214 291.685L481.421 291.622C480.551 291.592 479.73 291.653 478.959 291.805C478.188 291.965 477.507 292.222 476.917 292.576C476.326 292.93 475.854 293.39 475.501 293.955C475.155 294.521 474.968 295.199 474.941 295.988C474.906 296.988 475.036 297.791 475.333 298.396C475.629 299 476.069 299.464 476.652 299.785C477.235 300.115 477.939 300.36 478.764 300.519Z" fill="#E6E6E6" fill-opacity="0.4"/>
<path d="M483.537 308.993L472.46 307.874L472.687 305.627L485.828 306.955L485.607 309.141L483.537 308.993ZM485.259 313.314L483.171 313.091C483.231 312.909 483.273 312.733 483.298 312.564C483.331 312.404 483.358 312.218 483.379 312.008C483.431 311.49 483.397 311.024 483.275 310.611C483.153 310.198 482.96 309.839 482.697 309.534C482.433 309.229 482.107 308.975 481.718 308.773C481.337 308.579 480.91 308.433 480.437 308.336L480.137 307.668C480.93 307.748 481.668 307.9 482.348 308.125C483.028 308.357 483.619 308.666 484.119 309.052C484.628 309.439 485.007 309.903 485.255 310.443C485.51 310.992 485.602 311.623 485.53 312.336C485.513 312.498 485.474 312.682 485.413 312.888C485.359 313.095 485.308 313.237 485.259 313.314Z" fill="#E6E6E6" fill-opacity="0.4"/>
<path d="M472.541 318.018L483.668 323.484L483.293 325.872L469.053 318.274C468.75 318.103 468.43 317.887 468.092 317.628C467.744 317.376 467.425 317.071 467.136 316.712C466.846 316.354 466.631 315.941 466.49 315.474C466.34 315.014 466.311 314.486 466.405 313.891C466.432 313.715 466.492 313.493 466.583 313.227C466.674 312.962 466.745 312.775 466.795 312.668L468.605 312.939C468.587 313.002 468.563 313.102 468.534 313.237C468.495 313.379 468.471 313.479 468.462 313.535C468.383 314.041 468.384 314.482 468.465 314.857C468.538 315.231 468.712 315.563 468.988 315.854C469.254 316.151 469.643 316.43 470.154 316.692L472.541 318.018ZM484.657 317.189L473.995 318.988L471.552 319.197L470.984 317.465L485.039 314.753L484.657 317.189Z" fill="#E6E6E6" fill-opacity="0.4"/>
<path d="M479.817 329.996L464.47 326.471L464.978 324.258L482.8 328.352L482.336 330.374L479.817 329.996ZM473.971 337.784L473.721 337.727C472.785 337.512 471.942 337.201 471.192 336.795C470.45 336.391 469.834 335.907 469.346 335.344C468.855 334.789 468.519 334.165 468.335 333.471C468.152 332.778 468.153 332.031 468.337 331.23C468.524 330.413 468.825 329.722 469.238 329.157C469.652 328.593 470.167 328.151 470.782 327.834C471.398 327.516 472.097 327.309 472.879 327.213C473.659 327.125 474.512 327.137 475.438 327.249L476.771 327.555C477.7 327.869 478.512 328.244 479.206 328.678C479.899 329.113 480.462 329.606 480.895 330.156C481.334 330.716 481.622 331.337 481.757 332.02C481.901 332.704 481.879 333.451 481.694 334.26C481.508 335.069 481.184 335.75 480.723 336.304C480.27 336.859 479.705 337.285 479.027 337.58C478.35 337.875 477.582 338.037 476.724 338.066C475.872 338.104 474.954 338.01 473.971 337.784ZM474.229 335.514L474.479 335.571C475.121 335.719 475.74 335.79 476.334 335.784C476.936 335.78 477.484 335.685 477.978 335.498C478.477 335.32 478.901 335.042 479.247 334.662C479.601 334.284 479.847 333.794 479.985 333.191C480.113 332.636 480.129 332.13 480.033 331.674C479.936 331.226 479.757 330.821 479.497 330.461C479.246 330.103 478.935 329.785 478.564 329.508C478.2 329.241 477.809 329.013 477.393 328.826L474.312 328.118C473.72 328.149 473.146 328.251 472.588 328.424C472.039 328.598 471.559 328.889 471.148 329.295C470.745 329.704 470.461 330.269 470.295 330.991C470.159 331.586 470.164 332.125 470.312 332.61C470.465 333.105 470.728 333.541 471.101 333.919C471.472 334.304 471.923 334.629 472.455 334.893C472.995 335.159 473.586 335.366 474.229 335.514Z" fill="#E6E6E6" fill-opacity="0.4"/>
<path d="M477.567 348.537L475.905 348.043L477.939 341.198L479.601 341.692L477.567 348.537ZM481.99 344.923L481.347 347.088L468.744 343.343C468.315 343.215 467.972 343.186 467.714 343.253C467.456 343.321 467.261 343.45 467.128 343.64C466.995 343.829 466.893 344.045 466.821 344.287C466.768 344.466 466.728 344.658 466.701 344.862C466.68 345.077 466.666 345.238 466.659 345.347L464.889 344.833C464.885 344.645 464.902 344.404 464.938 344.109C464.965 343.82 465.036 343.481 465.152 343.09C465.31 342.56 465.56 342.104 465.902 341.722C466.245 341.34 466.702 341.089 467.272 340.97C467.848 340.861 468.557 340.931 469.399 341.182L481.99 344.923Z" fill="#E6E6E6" fill-opacity="0.4"/>
<path d="M470.322 349.268L470.585 349.365C471.479 349.693 472.26 350.128 472.928 350.669C473.604 351.212 474.135 351.832 474.52 352.529C474.914 353.228 475.139 353.983 475.196 354.793C475.262 355.606 475.135 356.444 474.818 357.307C474.498 358.178 474.05 358.902 473.473 359.479C472.902 360.067 472.239 360.5 471.487 360.778C470.739 361.066 469.932 361.199 469.065 361.175C468.206 361.153 467.329 360.979 466.435 360.65L466.172 360.553C465.278 360.224 464.497 359.79 463.829 359.249C463.161 358.709 462.631 358.085 462.241 357.378C461.856 356.681 461.63 355.926 461.565 355.113C461.505 354.31 461.635 353.474 461.955 352.603C462.275 351.732 462.72 351.007 463.288 350.427C463.865 349.85 464.527 349.417 465.275 349.129C466.027 348.85 466.833 348.722 467.693 348.743C468.552 348.764 469.428 348.939 470.322 349.268ZM469.806 351.484L469.543 351.387C468.924 351.16 468.313 351.018 467.71 350.961C467.114 350.906 466.553 350.947 466.026 351.083C465.496 351.226 465.028 351.474 464.62 351.827C464.221 352.183 463.913 352.655 463.696 353.244C463.483 353.824 463.415 354.375 463.491 354.898C463.573 355.431 463.77 355.92 464.084 356.364C464.397 356.809 464.798 357.204 465.287 357.548C465.781 357.903 466.337 358.194 466.956 358.422L467.219 358.519C467.83 358.744 468.435 358.879 469.033 358.926C469.637 358.983 470.203 358.94 470.733 358.797C471.267 358.664 471.738 358.421 472.145 358.067C472.55 357.722 472.86 357.255 473.077 356.667C473.29 356.087 473.356 355.53 473.275 354.997C473.19 354.472 472.989 353.982 472.671 353.526C472.357 353.082 471.953 352.686 471.456 352.338C470.967 351.994 470.417 351.709 469.806 351.484Z" fill="#E6E6E6" fill-opacity="0.4"/>
<path d="M464.156 387.044L452.86 374.028L454.029 371.927L466.268 386.487L465.515 387.842L464.156 387.044ZM447.603 383.48L464.625 386.201L466.019 386.935L465.265 388.29L446.428 385.592L447.603 383.48ZM453.501 386.411L451.816 385.474L456.669 376.748L458.355 377.685L453.501 386.411Z" fill="#E6E6E6" fill-opacity="0.4"/>
<path d="M458.512 399.409L443.574 389.778L444.851 387.798L459.789 397.429L458.512 399.409Z" fill="#E6E6E6" fill-opacity="0.4"/>
<path d="M445.535 417.127L431.895 405.732L433.405 403.924L447.045 415.319L445.535 417.127ZM434.625 417.716L433.145 416.479L438.247 410.371L439.727 411.607L434.625 417.716ZM439.986 423.769L438.506 422.533L444.383 415.497L445.864 416.733L439.986 423.769Z" fill="#E6E6E6" fill-opacity="0.4"/>
<path d="M432.246 425.282L422.616 416.242L424.17 414.587L433.8 423.627L432.246 425.282ZM436.471 425.9C436.738 426.151 436.888 426.443 436.922 426.775C436.95 427.114 436.813 427.444 436.513 427.764C436.217 428.079 435.9 428.233 435.56 428.226C435.215 428.226 434.908 428.1 434.641 427.849C434.386 427.61 434.247 427.318 434.225 426.973C434.203 426.64 434.34 426.316 434.635 426.001C434.936 425.681 435.253 425.521 435.587 425.522C435.921 425.535 436.216 425.661 436.471 425.9Z" fill="#E6E6E6" fill-opacity="0.4"/>
<path d="M425.355 428.281L418.175 420.773L419.808 419.213L428.936 428.759L427.392 430.235L425.355 428.281ZM423.474 425.537L424.178 424.914C424.797 425.572 425.276 426.268 425.617 427.001C425.963 427.739 426.162 428.478 426.215 429.216C426.267 429.954 426.165 430.659 425.908 431.333C425.651 432.018 425.234 432.636 424.658 433.187C424.187 433.637 423.702 433.977 423.202 434.208C422.707 434.444 422.196 434.551 421.667 434.527C421.132 434.51 420.583 434.348 420.02 434.042C419.462 433.741 418.883 433.277 418.281 432.647L412.3 426.392L413.941 424.823L419.939 431.096C420.417 431.596 420.873 431.925 421.307 432.085C421.746 432.25 422.172 432.265 422.584 432.13C423.001 432.002 423.415 431.74 423.827 431.347C424.233 430.959 424.522 430.519 424.694 430.028C424.86 429.542 424.921 429.034 424.875 428.504C424.823 427.979 424.68 427.458 424.444 426.94C424.208 426.434 423.884 425.966 423.474 425.537Z" fill="#E6E6E6" fill-opacity="0.4"/>
<path d="M414.239 442.047L413.12 440.723L418.575 436.114L419.694 437.438L414.239 442.047ZM419.92 441.45L418.195 442.907L409.709 432.865C409.42 432.524 409.15 432.31 408.897 432.225C408.644 432.141 408.41 432.141 408.195 432.227C407.98 432.313 407.776 432.437 407.583 432.6C407.44 432.721 407.302 432.86 407.167 433.016C407.032 433.183 406.932 433.311 406.867 433.398L405.668 431.997C405.768 431.838 405.914 431.646 406.106 431.419C406.287 431.192 406.533 430.947 406.843 430.684C407.266 430.327 407.726 430.083 408.222 429.951C408.718 429.82 409.237 429.86 409.779 430.073C410.321 430.298 410.875 430.746 411.442 431.417L419.92 441.45Z" fill="#E6E6E6" fill-opacity="0.4"/>
<path d="M398.891 436.941C399.626 436.389 400.386 436.012 401.17 435.809C401.953 435.618 402.73 435.589 403.502 435.722C404.267 435.86 404.998 436.156 405.695 436.609C406.392 437.063 407.019 437.661 407.576 438.402L407.884 438.812C408.529 439.671 408.976 440.531 409.226 441.392C409.481 442.259 409.566 443.091 409.482 443.887C409.398 444.683 409.17 445.409 408.797 446.065C408.425 446.721 407.943 447.272 407.351 447.717C406.596 448.283 405.848 448.642 405.105 448.792C404.357 448.948 403.631 448.923 402.928 448.718C402.229 448.52 401.558 448.169 400.915 447.665C400.277 447.168 399.679 446.548 399.122 445.806L398.513 444.996L406.4 439.072L407.507 440.546L401.426 445.113L401.529 445.25C401.907 445.699 402.346 446.081 402.848 446.397C403.343 446.717 403.877 446.886 404.45 446.903C405.023 446.921 405.618 446.697 406.236 446.233C406.646 445.925 406.958 445.554 407.171 445.119C407.388 444.691 407.494 444.215 407.487 443.691C407.48 443.166 407.362 442.609 407.132 442.018C406.902 441.428 406.547 440.814 406.068 440.176L405.76 439.766C405.384 439.265 404.961 438.845 404.492 438.505C404.022 438.176 403.529 437.946 403.012 437.815C402.49 437.688 401.966 437.675 401.44 437.775C400.908 437.879 400.395 438.117 399.9 438.489C399.262 438.968 398.82 439.503 398.573 440.096C398.326 440.689 398.201 441.328 398.196 442.013L396.451 441.965C396.419 441.449 396.462 440.903 396.579 440.327C396.696 439.751 396.938 439.172 397.305 438.591C397.666 438.014 398.194 437.464 398.891 436.941Z" fill="#E6E6E6" fill-opacity="0.4"/>
<path d="M389.063 445.962C388.61 446.251 388.251 446.61 387.985 447.041C387.719 447.471 387.566 447.927 387.524 448.407C387.488 448.894 387.586 449.357 387.819 449.797L386.008 450.954C385.622 450.273 385.453 449.517 385.501 448.685C385.546 447.864 385.787 447.069 386.222 446.298C386.661 445.535 387.275 444.901 388.064 444.398C388.901 443.863 389.726 443.545 390.538 443.441C391.344 443.342 392.116 443.418 392.856 443.669C393.59 443.926 394.272 444.32 394.902 444.854C395.53 445.4 396.083 446.046 396.56 446.794L396.836 447.226C397.314 447.973 397.665 448.743 397.891 449.536C398.115 450.339 398.188 451.127 398.112 451.9C398.029 452.677 397.773 453.411 397.344 454.1C396.908 454.793 396.272 455.407 395.435 455.941C394.564 456.498 393.689 456.805 392.81 456.865C391.935 456.931 391.117 456.777 390.357 456.403C389.594 456.041 388.95 455.486 388.426 454.74L390.236 453.584C390.564 454.021 390.959 454.353 391.422 454.579C391.878 454.809 392.368 454.911 392.893 454.886C393.414 454.871 393.929 454.702 394.437 454.378C395.02 454.005 395.436 453.576 395.684 453.088C395.931 452.612 396.046 452.104 396.029 451.565C396.011 451.036 395.901 450.502 395.702 449.963C395.5 449.435 395.244 448.928 394.933 448.441L394.657 448.009C394.346 447.522 393.991 447.073 393.593 446.661C393.195 446.249 392.76 445.923 392.288 445.683C391.81 445.448 391.301 445.339 390.761 445.355C390.219 445.383 389.653 445.585 389.063 445.962Z" fill="#E6E6E6" fill-opacity="0.4"/>
<path d="M388.267 466.406L379.332 449.922L381.317 448.846L390.252 465.33L388.267 466.406ZM383.189 455.912L384.033 455.496C384.456 456.294 384.736 457.092 384.871 457.888C385.011 458.692 385.009 459.457 384.865 460.183C384.722 460.908 384.438 461.562 384.013 462.145C383.584 462.738 383.02 463.224 382.319 463.604C381.746 463.915 381.188 464.115 380.645 464.206C380.106 464.304 379.584 464.272 379.08 464.11C378.568 463.952 378.081 463.652 377.619 463.208C377.16 462.772 376.723 462.171 376.308 461.405L372.184 453.796L374.18 452.714L378.316 460.345C378.646 460.953 378.999 461.391 379.376 461.659C379.756 461.934 380.163 462.061 380.595 462.039C381.032 462.025 381.5 461.882 382.001 461.61C382.495 461.343 382.889 460.995 383.185 460.566C383.473 460.141 383.665 459.667 383.76 459.143C383.849 458.623 383.847 458.083 383.756 457.521C383.661 456.971 383.472 456.434 383.189 455.912Z" fill="#E6E6E6" fill-opacity="0.4"/>
<path d="M359.67 466.937L364.078 465.171L364.791 466.949L360.383 468.716C359.529 469.058 358.893 469.471 358.473 469.955C358.053 470.439 357.819 470.971 357.771 471.551C357.716 472.135 357.812 472.736 358.061 473.356C358.288 473.922 358.626 474.405 359.075 474.803C359.516 475.205 360.062 475.451 360.712 475.541C361.365 475.639 362.118 475.517 362.972 475.175L366.869 473.612L360.974 458.905L363.161 458.029L369.774 474.526L363.689 476.965C362.443 477.465 361.303 477.672 360.269 477.586C359.235 477.501 358.343 477.166 357.591 476.582C356.843 476.005 356.273 475.229 355.883 474.255C355.459 473.197 355.32 472.205 355.466 471.279C355.612 470.352 356.037 469.52 356.74 468.782C357.447 468.052 358.424 467.437 359.67 466.937Z" fill="#E6E6E6" fill-opacity="0.4"/>
<path d="M351.69 469.442L351.773 469.71C352.054 470.62 352.183 471.504 352.159 472.363C352.138 473.23 351.967 474.028 351.648 474.758C351.331 475.495 350.868 476.132 350.259 476.67C349.653 477.215 348.91 477.624 348.032 477.896C347.145 478.17 346.298 478.253 345.489 478.146C344.676 478.048 343.93 477.785 343.252 477.356C342.568 476.937 341.973 476.376 341.466 475.672C340.961 474.977 340.568 474.174 340.286 473.265L340.203 472.996C339.922 472.087 339.793 471.202 339.816 470.343C339.84 469.484 340.014 468.685 340.339 467.945C340.659 467.216 341.122 466.578 341.728 466.033C342.329 465.498 343.073 465.093 343.959 464.819C344.846 464.544 345.692 464.457 346.498 464.557C347.306 464.665 348.052 464.928 348.736 465.347C349.414 465.776 350.005 466.338 350.51 467.034C351.015 467.73 351.408 468.532 351.69 469.442ZM349.615 470.378L349.532 470.109C349.337 469.48 349.079 468.908 348.758 468.394C348.44 467.887 348.067 467.466 347.639 467.13C347.204 466.796 346.722 466.575 346.194 466.466C345.668 466.364 345.106 466.406 344.508 466.591C343.917 466.774 343.437 467.055 343.069 467.433C342.695 467.821 342.426 468.275 342.263 468.794C342.1 469.313 342.03 469.871 342.053 470.469C342.071 471.077 342.177 471.695 342.372 472.325L342.455 472.593C342.648 473.215 342.907 473.778 343.233 474.282C343.554 474.796 343.932 475.22 344.368 475.554C344.798 475.898 345.277 476.124 345.805 476.233C346.325 476.345 346.884 476.308 347.483 476.123C348.074 475.94 348.556 475.655 348.93 475.266C349.296 474.88 349.564 474.423 349.732 473.894C349.895 473.375 349.964 472.812 349.939 472.207C349.915 471.609 349.808 470.999 349.615 470.378Z" fill="#E6E6E6" fill-opacity="0.4"/>
<path d="M331.843 473.946L330.866 486.804L329.192 487.145L329.196 482.223L330.326 468.774L331.988 468.435L331.843 473.946ZM337.899 485.368L332.717 474.017L330.768 468.684L332.419 468.347L340.195 484.9L337.899 485.368ZM322.29 476.158L322.028 488.608L319.719 489.079L320.375 470.805L322.025 470.468L322.29 476.158ZM328.941 487.197L323.099 475.731L320.805 470.717L322.468 470.378L328.646 482.336L330.591 486.86L328.941 487.197Z" fill="#E6E6E6" fill-opacity="0.4"/>
<path d="M302.24 472.882L305.944 472.648L306.04 474.563L302.361 474.795C301.094 474.875 300.055 475.206 299.244 475.787C298.433 476.377 297.846 477.164 297.485 478.149C297.115 479.143 296.972 480.285 297.053 481.577L297.122 482.661C297.186 483.676 297.365 484.57 297.658 485.342C297.952 486.123 298.352 486.77 298.857 487.285C299.363 487.807 299.966 488.189 300.667 488.43C301.359 488.672 302.143 488.765 303.02 488.709L307.016 488.457L307.138 490.382L303.142 490.634C301.981 490.708 300.908 490.58 299.925 490.251C298.943 489.929 298.083 489.425 297.347 488.738C296.603 488.059 296.011 487.216 295.572 486.208C295.134 485.208 294.874 484.067 294.793 482.784L294.726 481.724C294.645 480.44 294.759 479.271 295.067 478.216C295.376 477.169 295.861 476.262 296.522 475.495C297.175 474.728 297.984 474.118 298.95 473.665C299.909 473.221 301.006 472.961 302.24 472.882ZM305.81 490.466L304.689 472.728L307.04 472.579L308.161 490.317L305.81 490.466Z" fill="#E6E6E6" fill-opacity="0.4"/>
<path d="M285.64 473.052C286.56 473.067 287.391 473.236 288.134 473.558C288.869 473.888 289.501 474.342 290.028 474.92C290.547 475.499 290.943 476.181 291.215 476.967C291.486 477.753 291.614 478.61 291.598 479.537L291.59 480.05C291.572 481.124 291.397 482.078 291.065 482.91C290.734 483.751 290.291 484.46 289.736 485.037C289.18 485.613 288.555 486.046 287.858 486.336C287.161 486.625 286.443 486.764 285.702 486.751C284.758 486.735 283.947 486.559 283.269 486.222C282.583 485.885 282.025 485.419 281.596 484.826C281.166 484.241 280.852 483.552 280.654 482.759C280.456 481.974 280.364 481.118 280.38 480.191L280.397 479.178L290.259 479.344L290.228 481.187L282.624 481.059L282.621 481.23C282.644 481.816 282.756 482.388 282.958 482.945C283.152 483.501 283.47 483.962 283.912 484.328C284.353 484.694 284.96 484.883 285.733 484.896C286.246 484.905 286.72 484.803 287.155 484.59C287.59 484.386 287.965 484.075 288.282 483.657C288.598 483.239 288.847 482.726 289.028 482.119C289.209 481.512 289.306 480.809 289.32 480.012L289.328 479.499C289.339 478.873 289.263 478.281 289.102 477.725C288.932 477.177 288.684 476.692 288.357 476.272C288.022 475.851 287.617 475.519 287.141 475.275C286.657 475.03 286.105 474.903 285.487 474.893C284.69 474.879 284.011 475.031 283.453 475.347C282.894 475.663 282.402 476.09 281.978 476.628L280.629 475.519C280.922 475.093 281.291 474.688 281.737 474.305C282.183 473.921 282.729 473.613 283.376 473.38C284.015 473.146 284.769 473.037 285.64 473.052Z" fill="#E6E6E6" fill-opacity="0.4"/>
<path d="M267.482 476.61C267.443 477.023 267.474 477.394 267.574 477.722C267.665 478.057 267.856 478.369 268.148 478.658C268.432 478.946 268.838 479.234 269.367 479.52C269.888 479.806 270.554 480.11 271.366 480.431C272.217 480.772 272.98 481.134 273.655 481.516C274.33 481.906 274.899 482.332 275.362 482.792C275.826 483.252 276.166 483.762 276.384 484.322C276.601 484.882 276.677 485.506 276.613 486.195C276.548 486.884 276.347 487.506 276.009 488.063C275.67 488.62 275.218 489.088 274.651 489.468C274.075 489.856 273.407 490.137 272.647 490.311C271.887 490.485 271.053 490.529 270.146 490.444C268.817 490.319 267.714 489.959 266.839 489.362C265.954 488.772 265.307 488.045 264.897 487.181C264.487 486.325 264.325 485.436 264.412 484.512L266.745 484.731C266.683 485.395 266.77 485.996 267.006 486.533C267.241 487.078 267.632 487.523 268.18 487.869C268.727 488.223 269.442 488.441 270.326 488.524C271.16 488.602 271.861 488.541 272.427 488.341C272.993 488.14 273.43 487.838 273.738 487.433C274.038 487.028 274.213 486.55 274.265 485.999C274.3 485.627 274.255 485.279 274.13 484.957C273.996 484.642 273.775 484.339 273.467 484.049C273.151 483.757 272.744 483.478 272.246 483.211C271.739 482.943 271.131 482.673 270.421 482.402C269.443 482.025 268.606 481.627 267.909 481.211C267.212 480.794 266.65 480.345 266.221 479.863C265.783 479.389 265.476 478.866 265.301 478.293C265.117 477.729 265.057 477.102 265.122 476.413C265.189 475.692 265.396 475.053 265.743 474.497C266.089 473.941 266.553 473.482 267.135 473.12C267.716 472.757 268.398 472.498 269.181 472.343C269.955 472.195 270.808 472.164 271.74 472.252C272.558 472.328 273.354 472.517 274.127 472.819C274.891 473.119 275.577 473.527 276.182 474.041C276.78 474.555 277.242 475.162 277.569 475.863C277.886 476.571 278.004 477.367 277.921 478.25L275.588 478.031C275.645 477.424 275.576 476.89 275.382 476.43C275.187 475.979 274.901 475.593 274.522 475.271C274.136 474.949 273.689 474.694 273.184 474.508C272.669 474.329 272.128 474.213 271.561 474.16C270.743 474.083 270.039 474.132 269.451 474.305C268.863 474.479 268.403 474.763 268.072 475.157C267.732 475.55 267.536 476.034 267.482 476.61Z" fill="#E6E6E6" fill-opacity="0.4"/>
<path d="M262.984 478.072L262.936 478.349C262.775 479.287 262.489 480.134 262.078 480.889C261.666 481.652 261.152 482.286 260.537 482.791C259.92 483.305 259.218 483.663 258.432 483.866C257.644 484.077 256.797 484.105 255.891 483.949C254.976 483.792 254.183 483.482 253.512 483.019C252.83 482.563 252.285 481.991 251.875 481.301C251.456 480.618 251.18 479.847 251.046 478.991C250.912 478.142 250.925 477.248 251.087 476.31L251.134 476.033C251.296 475.095 251.582 474.248 251.992 473.493C252.403 472.738 252.921 472.104 253.546 471.592C254.161 471.087 254.863 470.729 255.651 470.518C256.429 470.313 257.275 470.29 258.19 470.447C259.104 470.604 259.898 470.91 260.571 471.365C261.243 471.827 261.788 472.4 262.207 473.083C262.617 473.773 262.889 474.542 263.024 475.391C263.159 476.24 263.145 477.134 262.984 478.072ZM260.711 477.966L260.758 477.689C260.87 477.04 260.899 476.413 260.846 475.809C260.792 475.214 260.65 474.669 260.422 474.175C260.185 473.68 259.856 473.265 259.435 472.928C259.012 472.599 258.492 472.382 257.875 472.276C257.265 472.171 256.711 472.203 256.211 472.373C255.701 472.55 255.256 472.832 254.876 473.221C254.495 473.61 254.179 474.076 253.929 474.619C253.669 475.169 253.484 475.768 253.372 476.418L253.324 476.695C253.214 477.336 253.19 477.956 253.252 478.553C253.305 479.156 253.45 479.706 253.687 480.201C253.914 480.702 254.239 481.121 254.66 481.458C255.073 481.793 255.588 482.014 256.205 482.12C256.815 482.225 257.374 482.189 257.884 482.013C258.385 481.835 258.831 481.548 259.221 481.153C259.602 480.764 259.918 480.294 260.169 479.743C260.42 479.2 260.6 478.607 260.711 477.966Z" fill="#E6E6E6" fill-opacity="0.4"/>
<path d="M244.023 469.356C243.502 469.226 242.994 469.212 242.499 469.315C242.003 469.418 241.567 469.62 241.19 469.92C240.812 470.228 240.543 470.618 240.383 471.09L238.298 470.571C238.527 469.822 238.96 469.18 239.597 468.642C240.224 468.111 240.967 467.738 241.825 467.525C242.682 467.319 243.564 467.329 244.472 467.555C245.435 467.795 246.234 468.175 246.868 468.693C247.494 469.21 247.97 469.824 248.296 470.534C248.615 471.242 248.797 472.009 248.843 472.834C248.879 473.665 248.79 474.511 248.575 475.371L248.451 475.869C248.237 476.73 247.92 477.514 247.5 478.223C247.07 478.938 246.548 479.533 245.935 480.01C245.313 480.484 244.605 480.802 243.81 480.964C243.006 481.125 242.123 481.085 241.16 480.845C240.157 480.595 239.332 480.171 238.684 479.574C238.034 478.984 237.583 478.285 237.332 477.476C237.071 476.672 237.031 475.824 237.212 474.929L239.297 475.449C239.204 475.988 239.235 476.503 239.39 476.994C239.536 477.484 239.799 477.91 240.178 478.273C240.547 478.642 241.024 478.899 241.609 479.045C242.28 479.212 242.878 479.218 243.403 479.064C243.918 478.916 244.366 478.65 244.746 478.267C245.117 477.889 245.43 477.443 245.684 476.928C245.928 476.418 246.12 475.883 246.26 475.323L246.384 474.825C246.524 474.265 246.606 473.698 246.631 473.126C246.657 472.553 246.594 472.013 246.444 471.506C246.285 470.997 246.015 470.552 245.632 470.172C245.239 469.797 244.702 469.525 244.023 469.356Z" fill="#E6E6E6" fill-opacity="0.4"/>
<path d="M217.773 461.082L218.448 459.289L229.713 463.528L229.038 465.321L217.773 461.082ZM213.156 474.461L229.188 463.33L230.547 463.842L229.928 465.487L213.925 476.577L212.554 476.061L213.156 474.461ZM213.491 476.413L214.17 474.608L224.818 478.615L224.139 480.42L213.491 476.413Z" fill="#E6E6E6" fill-opacity="0.4"/>
<path d="M206.805 473.519L214.361 457.432L216.494 458.433L208.937 474.52L206.805 473.519ZM197.093 468.957L207.301 464.595L212.89 462.459L212.174 464.901L207.882 466.688L199.656 470.161L197.093 468.957ZM206.704 453.835L208.975 464.477L206.91 465.571L204.163 452.641L206.704 453.835Z" fill="#E6E6E6" fill-opacity="0.4"/>
<path d="M186.403 447.284C186.184 447.637 186.045 447.982 185.988 448.32C185.919 448.661 185.951 449.026 186.083 449.415C186.207 449.799 186.442 450.238 186.787 450.731C187.125 451.22 187.585 451.789 188.167 452.44C188.775 453.126 189.296 453.79 189.729 454.434C190.157 455.085 190.476 455.72 190.685 456.339C190.893 456.958 190.97 457.567 190.913 458.165C190.857 458.762 190.646 459.355 190.28 459.942C189.914 460.529 189.456 460.996 188.904 461.342C188.352 461.689 187.738 461.905 187.061 461.992C186.373 462.081 185.65 462.033 184.892 461.848C184.135 461.664 183.369 461.33 182.595 460.848C181.463 460.142 180.638 459.326 180.122 458.401C179.595 457.477 179.341 456.538 179.362 455.582C179.378 454.633 179.631 453.765 180.122 452.978L182.111 454.217C181.758 454.784 181.567 455.36 181.537 455.946C181.504 456.538 181.654 457.112 181.99 457.666C182.321 458.227 182.863 458.742 183.616 459.211C184.327 459.655 184.981 459.914 185.577 459.988C186.173 460.062 186.699 459.987 187.155 459.763C187.604 459.535 187.975 459.186 188.268 458.717C188.466 458.399 188.581 458.068 188.614 457.724C188.635 457.382 188.573 457.012 188.427 456.615C188.275 456.213 188.036 455.781 187.71 455.319C187.377 454.853 186.954 454.34 186.44 453.78C185.734 453.004 185.163 452.274 184.727 451.59C184.29 450.906 183.988 450.252 183.82 449.63C183.64 449.01 183.6 448.404 183.7 447.814C183.788 447.227 184.015 446.639 184.381 446.052C184.764 445.438 185.235 444.959 185.793 444.617C186.352 444.275 186.972 444.072 187.654 444.008C188.337 443.944 189.063 444.018 189.832 444.229C190.591 444.443 191.367 444.797 192.162 445.292C192.859 445.727 193.486 446.252 194.042 446.867C194.592 447.478 195.022 448.149 195.334 448.88C195.638 449.607 195.78 450.357 195.758 451.13C195.726 451.905 195.475 452.67 195.005 453.422L193.016 452.183C193.339 451.665 193.517 451.157 193.549 450.659C193.577 450.168 193.493 449.694 193.299 449.237C193.097 448.776 192.812 448.349 192.443 447.956C192.063 447.566 191.631 447.22 191.148 446.919C190.45 446.484 189.799 446.213 189.196 446.105C188.592 445.997 188.053 446.045 187.581 446.249C187.101 446.449 186.709 446.794 186.403 447.284Z" fill="#E6E6E6" fill-opacity="0.4"/>
<path d="M176.791 448.2L183.225 439.797L185.028 441.178L176.998 451.664L175.292 450.358L176.791 448.2ZM179.274 445.72L180.086 446.387C179.53 447.1 178.929 447.69 178.283 448.159C177.632 448.634 176.956 448.962 176.254 449.142C175.553 449.322 174.843 449.332 174.125 449.172C173.402 449.019 172.692 448.675 171.994 448.14C171.503 447.764 171.105 447.347 170.8 446.888C170.491 446.436 170.298 445.945 170.222 445.415C170.146 444.885 170.202 444.323 170.39 443.729C170.578 443.136 170.925 442.509 171.429 441.85L176.78 434.862L178.573 436.235L173.289 443.136C172.869 443.685 172.626 444.196 172.561 444.669C172.49 445.137 172.565 445.574 172.787 445.98C173.004 446.392 173.339 446.772 173.791 447.118C174.321 447.524 174.836 447.769 175.335 447.854C175.833 447.938 176.316 447.898 176.781 447.731C177.247 447.565 177.691 447.306 178.115 446.954C178.527 446.603 178.913 446.192 179.274 445.72ZM171.723 441.506L173.207 442.058C172.76 442.628 172.244 443.109 171.657 443.5C171.064 443.887 170.435 444.153 169.769 444.299C169.097 444.441 168.411 444.433 167.711 444.276C167.006 444.126 166.321 443.796 165.656 443.287C165.093 442.856 164.653 442.401 164.334 441.921C164.008 441.436 163.815 440.924 163.756 440.387C163.685 439.85 163.754 439.284 163.966 438.687C164.177 438.09 164.534 437.462 165.039 436.803L170.316 429.912L172.118 431.292L166.827 438.203C166.377 438.791 166.122 439.318 166.062 439.785C165.99 440.253 166.073 440.68 166.31 441.066C166.536 441.454 166.878 441.824 167.337 442.175C167.731 442.477 168.132 442.677 168.539 442.773C168.947 442.87 169.345 442.878 169.735 442.798C170.12 442.723 170.484 442.576 170.826 442.357C171.162 442.132 171.461 441.849 171.723 441.506Z" fill="#E6E6E6" fill-opacity="0.4"/>
<path d="M160.495 423.822L155.86 428.797C155.505 429.178 155.275 429.581 155.169 430.005C155.052 430.429 155.073 430.861 155.232 431.298C155.392 431.736 155.695 432.163 156.141 432.579C156.558 432.967 156.991 433.237 157.44 433.388C157.882 433.533 158.301 433.573 158.696 433.507C159.085 433.436 159.405 433.266 159.654 432.998L161.307 434.538C160.985 434.883 160.577 435.142 160.082 435.315C159.587 435.488 159.045 435.556 158.457 435.52C157.857 435.483 157.246 435.327 156.626 435.049C155.995 434.772 155.387 434.362 154.803 433.818C154.101 433.164 153.592 432.468 153.278 431.73C152.958 430.987 152.871 430.233 153.017 429.468C153.151 428.703 153.553 427.961 154.225 427.24L158.418 422.738C158.718 422.417 159.01 422.049 159.295 421.636C159.573 421.217 159.778 420.824 159.909 420.457L160.042 420.314L161.766 421.92C161.672 422.188 161.502 422.502 161.255 422.862C161.004 423.228 160.75 423.548 160.495 423.822ZM156.29 427.763L157.354 426.585L159.024 428.141C159.495 428.579 159.951 428.931 160.392 429.198C160.828 429.47 161.24 429.649 161.629 429.733C162.017 429.817 162.383 429.807 162.724 429.703C163.061 429.604 163.367 429.406 163.645 429.108C163.928 428.805 164.117 428.464 164.213 428.086C164.309 427.709 164.29 427.318 164.154 426.914C164.008 426.51 163.732 426.12 163.327 425.743C162.821 425.271 162.274 424.962 161.688 424.816C161.101 424.67 160.55 424.646 160.035 424.745C159.515 424.838 159.109 425.023 158.82 425.298L158.855 423.846C159.129 423.634 159.5 423.463 159.968 423.331C160.435 423.199 160.954 423.138 161.525 423.146C162.084 423.155 162.66 423.264 163.255 423.474C163.838 423.683 164.392 424.032 164.916 424.52C165.571 425.13 166.026 425.794 166.282 426.51C166.532 427.221 166.594 427.919 166.468 428.602C166.332 429.287 166.013 429.897 165.514 430.433C165.032 430.951 164.506 431.312 163.937 431.517C163.363 431.727 162.764 431.786 162.139 431.693C161.508 431.606 160.861 431.381 160.197 431.019C159.534 430.656 158.872 430.167 158.211 429.552L156.29 427.763Z" fill="#E6E6E6" fill-opacity="0.4"/>
<path d="M148.568 424.436L156.614 416.742L158.175 418.374L148.629 427.502L147.11 425.914L148.568 424.436ZM144.164 422.938L145.69 421.496C145.789 421.66 145.896 421.806 146.008 421.935C146.109 422.064 146.232 422.205 146.378 422.358C146.738 422.734 147.115 423.01 147.508 423.186C147.901 423.362 148.299 423.448 148.702 423.446C149.105 423.443 149.51 423.36 149.917 423.197C150.312 423.033 150.7 422.803 151.08 422.506L151.784 422.712C151.207 423.263 150.613 423.724 150 424.096C149.382 424.462 148.763 424.71 148.144 424.841C147.52 424.976 146.921 424.963 146.35 424.8C145.766 424.638 145.227 424.298 144.732 423.78C144.619 423.662 144.505 423.513 144.388 423.332C144.265 423.156 144.19 423.025 144.164 422.938Z" fill="#E6E6E6" fill-opacity="0.4"/>
<path d="M138.781 416.721L140.087 415.582L144.78 420.965L143.473 422.104L138.781 416.721ZM139.465 422.392L137.981 420.689L147.891 412.051C148.229 411.757 148.438 411.483 148.519 411.229C148.6 410.975 148.596 410.741 148.506 410.527C148.417 410.313 148.29 410.111 148.124 409.921C148.001 409.78 147.86 409.643 147.702 409.511C147.532 409.379 147.404 409.28 147.316 409.217L148.697 407.996C148.858 408.094 149.053 408.237 149.282 408.426C149.512 408.603 149.761 408.845 150.028 409.152C150.392 409.569 150.643 410.025 150.782 410.519C150.922 411.013 150.889 411.532 150.684 412.078C150.468 412.623 150.029 413.184 149.366 413.761L139.465 422.392Z" fill="#E6E6E6" fill-opacity="0.4"/>
<path d="M138.43 397.411C138.117 396.975 137.739 396.635 137.295 396.392C136.851 396.15 136.388 396.021 135.906 396.005C135.418 395.994 134.961 396.117 134.533 396.373L133.283 394.626C133.941 394.204 134.688 393.995 135.521 393.999C136.343 394.001 137.15 394.199 137.943 394.592C138.728 394.991 139.394 395.57 139.938 396.331C140.516 397.138 140.879 397.945 141.025 398.751C141.167 399.55 141.132 400.326 140.92 401.078C140.703 401.824 140.345 402.526 139.845 403.184C139.334 403.84 138.718 404.426 137.997 404.943L137.58 405.241C136.859 405.758 136.109 406.15 135.329 406.417C134.539 406.683 133.756 406.798 132.98 406.763C132.199 406.722 131.454 406.505 130.743 406.113C130.027 405.715 129.38 405.112 128.802 404.305C128.201 403.464 127.847 402.607 127.741 401.732C127.628 400.862 127.738 400.037 128.071 399.258C128.393 398.477 128.913 397.805 129.63 397.241L130.881 398.988C130.461 399.339 130.151 399.751 129.95 400.225C129.744 400.693 129.668 401.187 129.722 401.71C129.764 402.23 129.96 402.735 130.311 403.224C130.714 403.787 131.165 404.179 131.665 404.402C132.153 404.623 132.666 404.711 133.205 404.666C133.731 404.619 134.259 404.482 134.786 404.254C135.303 404.024 135.796 403.741 136.265 403.405L136.682 403.107C137.152 402.77 137.582 402.392 137.972 401.973C138.363 401.553 138.665 401.102 138.879 400.618C139.088 400.128 139.171 399.613 139.126 399.075C139.069 398.535 138.837 397.98 138.43 397.411Z" fill="#E6E6E6" fill-opacity="0.4"/>
<path d="M129.936 393.8L129.696 393.945C128.882 394.439 128.055 394.779 127.216 394.965C126.37 395.155 125.554 395.184 124.769 395.051C123.977 394.923 123.246 394.628 122.577 394.169C121.9 393.713 121.323 393.092 120.846 392.306C120.365 391.513 120.078 390.711 119.986 389.901C119.883 389.088 119.957 388.3 120.208 387.538C120.448 386.773 120.848 386.06 121.407 385.396C121.959 384.738 122.642 384.161 123.456 383.667L123.696 383.521C124.51 383.027 125.336 382.687 126.176 382.501C127.015 382.316 127.833 382.291 128.629 382.426C129.414 382.559 130.145 382.853 130.821 383.308C131.486 383.761 132.06 384.384 132.541 385.177C133.023 385.97 133.313 386.77 133.412 387.576C133.504 388.387 133.43 389.174 133.19 389.939C132.938 390.701 132.537 391.411 131.985 392.07C131.433 392.729 130.75 393.305 129.936 393.8ZM128.524 392.015L128.764 391.869C129.327 391.527 129.819 391.138 130.24 390.702C130.654 390.27 130.971 389.805 131.194 389.309C131.411 388.805 131.509 388.284 131.487 387.745C131.458 387.211 131.28 386.676 130.955 386.14C130.634 385.612 130.246 385.214 129.789 384.949C129.322 384.681 128.816 384.53 128.273 384.498C127.73 384.466 127.172 384.534 126.597 384.702C126.012 384.867 125.438 385.12 124.874 385.462L124.634 385.608C124.078 385.946 123.595 386.334 123.185 386.773C122.765 387.209 122.445 387.679 122.227 388.183C121.998 388.684 121.895 389.203 121.917 389.742C121.935 390.274 122.107 390.807 122.432 391.343C122.753 391.872 123.147 392.27 123.615 392.539C124.078 392.8 124.587 392.948 125.141 392.983C125.685 393.015 126.247 392.945 126.828 392.773C127.402 392.605 127.967 392.353 128.524 392.015Z" fill="#E6E6E6" fill-opacity="0.4"/>
<path d="M117.161 379.641L126.438 374.967L127.454 376.983L115.659 382.927L114.697 381.019L117.161 379.641ZM120.335 378.643L120.725 379.499C119.915 379.898 119.109 380.154 118.309 380.266C117.501 380.381 116.737 380.356 116.016 380.191C115.295 380.026 114.65 379.722 114.08 379.28C113.5 378.834 113.031 378.255 112.672 377.543C112.379 376.961 112.195 376.398 112.121 375.852C112.039 375.31 112.087 374.789 112.263 374.29C112.437 373.784 112.752 373.306 113.209 372.857C113.659 372.411 114.273 371.993 115.05 371.601L122.779 367.706L123.801 369.734L116.05 373.64C115.432 373.951 114.984 374.291 114.705 374.659C114.418 375.031 114.28 375.434 114.288 375.867C114.29 376.304 114.418 376.776 114.675 377.285C114.927 377.787 115.264 378.191 115.683 378.499C116.099 378.8 116.567 379.006 117.088 379.117C117.605 379.221 118.146 379.236 118.709 379.162C119.262 379.083 119.804 378.911 120.335 378.643Z" fill="#E6E6E6" fill-opacity="0.4"/>
<path d="M107.262 365.14L108.854 364.453L111.682 371.011L110.09 371.697L107.262 365.14ZM106.185 370.749L105.291 368.675L117.363 363.469C117.774 363.292 118.057 363.095 118.211 362.877C118.366 362.66 118.433 362.436 118.413 362.205C118.393 361.975 118.334 361.743 118.234 361.512C118.16 361.34 118.067 361.167 117.957 360.993C117.836 360.815 117.743 360.682 117.679 360.595L119.366 359.853C119.49 359.995 119.632 360.191 119.793 360.441C119.958 360.68 120.121 360.986 120.282 361.36C120.501 361.868 120.602 362.378 120.583 362.891C120.565 363.404 120.376 363.889 120.015 364.346C119.643 364.799 119.053 365.2 118.246 365.548L106.185 370.749Z" fill="#E6E6E6" fill-opacity="0.4"/>
<path d="M106.9 358.554L117.323 354.642L118.117 356.757L105.751 361.397L104.979 359.34L106.9 358.554ZM103.439 355.446L105.409 354.72C105.437 354.909 105.477 355.085 105.529 355.248C105.571 355.406 105.629 355.584 105.704 355.783C105.887 356.27 106.125 356.672 106.417 356.988C106.71 357.304 107.042 357.54 107.413 357.697C107.785 357.853 108.189 357.935 108.628 357.945C109.055 357.95 109.502 357.89 109.969 357.767L110.535 358.233C109.788 358.513 109.06 358.704 108.351 358.805C107.638 358.899 106.972 358.884 106.352 358.76C105.724 358.639 105.179 358.392 104.717 358.017C104.245 357.638 103.883 357.114 103.631 356.443C103.574 356.291 103.527 356.108 103.491 355.896C103.447 355.686 103.43 355.536 103.439 355.446Z" fill="#E6E6E6" fill-opacity="0.4"/>
<path d="M110.763 342.264L104.267 344.274C103.77 344.428 103.369 344.662 103.066 344.977C102.753 345.287 102.557 345.672 102.478 346.131C102.398 346.59 102.449 347.111 102.629 347.694C102.798 348.238 103.039 348.687 103.353 349.042C103.665 349.388 104.008 349.631 104.384 349.771C104.757 349.902 105.118 349.914 105.468 349.806L106.135 351.963C105.685 352.102 105.201 352.124 104.686 352.028C104.171 351.932 103.667 351.722 103.175 351.397C102.672 351.067 102.221 350.627 101.821 350.078C101.411 349.523 101.088 348.865 100.852 348.103C100.568 347.186 100.473 346.329 100.568 345.533C100.66 344.73 100.959 344.032 101.467 343.441C101.963 342.844 102.682 342.4 103.623 342.109L109.5 340.29C109.92 340.16 110.356 339.987 110.809 339.77C111.259 339.546 111.632 339.307 111.929 339.053L112.115 338.995L112.812 341.246C112.597 341.432 112.293 341.62 111.9 341.809C111.499 342.002 111.12 342.153 110.763 342.264ZM105.154 343.59L106.663 343.098L107.338 345.278C107.528 345.893 107.748 346.425 107.999 346.876C108.241 347.329 108.51 347.689 108.805 347.955C109.101 348.221 109.423 348.394 109.771 348.474C110.112 348.556 110.476 348.537 110.865 348.417C111.261 348.294 111.595 348.093 111.866 347.813C112.138 347.533 112.315 347.184 112.399 346.766C112.472 346.343 112.427 345.867 112.264 345.339C112.059 344.678 111.739 344.138 111.302 343.719C110.866 343.301 110.4 343.006 109.905 342.836C109.406 342.658 108.963 342.616 108.575 342.71L109.328 341.468C109.671 341.421 110.079 341.457 110.55 341.576C111.021 341.694 111.501 341.899 111.992 342.19C112.472 342.476 112.918 342.857 113.33 343.335C113.732 343.807 114.038 344.385 114.25 345.069C114.515 345.924 114.58 346.726 114.445 347.475C114.308 348.216 114.015 348.852 113.566 349.382C113.107 349.908 112.527 350.279 111.828 350.495C111.151 350.705 110.516 350.757 109.921 350.651C109.318 350.548 108.769 350.3 108.273 349.909C107.769 349.519 107.319 349.003 106.924 348.358C106.529 347.714 106.197 346.96 105.93 346.097L105.154 343.59Z" fill="#E6E6E6" fill-opacity="0.4"/>
<path d="M108.554 331.256C108.433 330.733 108.214 330.274 107.898 329.879C107.581 329.484 107.203 329.187 106.765 328.988C106.318 328.79 105.849 328.727 105.356 328.8L104.872 326.706C105.643 326.57 106.412 326.664 107.18 326.988C107.938 327.305 108.607 327.798 109.187 328.466C109.76 329.136 110.151 329.927 110.362 330.839C110.585 331.806 110.609 332.69 110.435 333.49C110.259 334.282 109.928 334.985 109.443 335.598C108.957 336.203 108.356 336.714 107.642 337.129C106.918 337.538 106.124 337.843 105.259 338.042L104.76 338.158C103.896 338.357 103.052 338.431 102.23 338.378C101.398 338.32 100.631 338.125 99.928 337.795C99.2235 337.456 98.6184 336.97 98.1126 336.335C97.6051 335.692 97.2396 334.887 97.0163 333.919C96.7838 332.912 96.7868 331.985 97.0252 331.136C97.2557 330.289 97.6744 329.571 98.2813 328.979C98.8784 328.382 99.6164 327.961 100.495 327.717L100.979 329.81C100.456 329.972 100.012 330.234 99.6438 330.594C99.2742 330.947 99.0137 331.374 98.8625 331.877C98.7015 332.374 98.6888 332.915 98.8242 333.502C98.9798 334.176 99.2455 334.712 99.6213 335.11C99.9873 335.501 100.427 335.78 100.942 335.945C101.446 336.104 101.986 336.18 102.56 336.172C103.125 336.159 103.689 336.087 104.252 335.957L104.752 335.842C105.314 335.712 105.857 335.528 106.378 335.291C106.9 335.054 107.352 334.753 107.736 334.389C108.118 334.017 108.391 333.573 108.557 333.059C108.712 332.539 108.711 331.938 108.554 331.256Z" fill="#E6E6E6" fill-opacity="0.4"/>
<path d="M94.5479 319.977L96.2567 319.686L97.4547 326.726L95.7459 327.017L94.5479 319.977ZM92.1755 325.172L91.7966 322.946L104.757 320.741C105.199 320.666 105.52 320.541 105.721 320.366C105.923 320.191 106.041 319.99 106.076 319.761C106.112 319.532 106.108 319.293 106.066 319.044C106.035 318.86 105.986 318.67 105.92 318.475C105.844 318.273 105.785 318.122 105.743 318.022L107.558 317.701C107.645 317.868 107.736 318.092 107.834 318.372C107.938 318.643 108.024 318.98 108.092 319.381C108.185 319.926 108.162 320.446 108.023 320.94C107.884 321.434 107.585 321.861 107.126 322.22C106.658 322.572 105.991 322.822 105.124 322.969L92.1755 325.172Z" fill="#E6E6E6" fill-opacity="0.4"/>
<path d="M103.566 297.583L105.477 297.442L106.134 306.304L104.223 306.446L103.566 297.583ZM88.3753 307.156L106.1 305.841L106.274 308.191L88.5495 309.505L88.3753 307.156Z" fill="#E6E6E6" fill-opacity="0.4"/>
<path d="M87.5099 287.517L105.381 287.558L105.376 289.817L90.3246 289.782L91.9743 294.339L89.9357 294.334L87.5091 287.871L87.5099 287.517Z" fill="#E6E6E6" fill-opacity="0.4"/>
<path d="M88.546 269.711L106.242 271.369L106.022 273.715L88.3262 272.057L88.546 269.711Z" fill="#E6E6E6" fill-opacity="0.4"/>
<path d="M100.123 266.82L99.8459 266.777C98.9047 266.633 98.0529 266.363 97.2904 265.966C96.5198 265.568 95.8764 265.066 95.36 264.46C94.8356 263.852 94.4645 263.158 94.2469 262.375C94.0212 261.591 93.978 260.745 94.1173 259.836C94.2578 258.919 94.5531 258.12 95.0031 257.44C95.4463 256.75 96.009 256.194 96.6912 255.772C97.3666 255.34 98.1315 255.05 98.9858 254.901C99.8322 254.751 100.726 254.748 101.667 254.892L101.945 254.935C102.886 255.079 103.738 255.349 104.5 255.746C105.263 256.143 105.905 256.649 106.429 257.264C106.945 257.87 107.316 258.565 107.542 259.349C107.761 260.123 107.8 260.969 107.659 261.886C107.519 262.803 107.228 263.602 106.786 264.284C106.336 264.964 105.773 265.52 105.097 265.952C104.415 266.374 103.651 266.66 102.805 266.811C101.958 266.961 101.065 266.964 100.123 266.82ZM100.188 264.545L100.465 264.588C101.117 264.687 101.744 264.705 102.347 264.641C102.941 264.576 103.483 264.424 103.972 264.186C104.463 263.94 104.873 263.604 105.202 263.177C105.522 262.748 105.73 262.225 105.825 261.605C105.919 260.994 105.876 260.44 105.697 259.943C105.511 259.437 105.22 258.997 104.825 258.624C104.429 258.25 103.958 257.943 103.41 257.703C102.855 257.453 102.252 257.279 101.601 257.179L101.323 257.136C100.68 257.038 100.06 257.025 99.4642 257.098C98.8616 257.163 98.315 257.318 97.8245 257.564C97.3272 257.8 96.9141 258.132 96.5852 258.559C96.2576 258.978 96.0463 259.497 95.9514 260.117C95.8577 260.728 95.9038 261.287 96.0897 261.793C96.2769 262.291 96.5717 262.731 96.9741 263.114C97.3696 263.487 97.8453 263.795 98.4011 264.037C98.9488 264.277 99.5444 264.446 100.188 264.545Z" fill="#E6E6E6" fill-opacity="0.4"/>
<path d="M93.0741 242.498L110.382 246.541L109.854 248.799L92.5466 244.757L93.0741 242.498ZM94.3734 236.935L96.2516 237.374L93.1282 250.747L91.2501 250.308L94.3734 236.935Z" fill="#E6E6E6" fill-opacity="0.4"/>
<path d="M113.255 210.417L119.272 212.89C119.49 213.217 119.696 213.68 119.889 214.279C120.076 214.875 120.147 215.621 120.104 216.518C120.056 217.405 119.78 218.462 119.276 219.689C118.864 220.69 118.312 221.541 117.619 222.241C116.922 222.931 116.112 223.447 115.188 223.789C114.26 224.12 113.245 224.257 112.142 224.2C111.035 224.132 109.868 223.846 108.641 223.342L107.365 222.817C106.138 222.313 105.102 221.72 104.256 221.038C103.413 220.348 102.773 219.583 102.335 218.743C101.89 217.9 101.663 216.998 101.654 216.035C101.637 215.069 101.847 214.055 102.283 212.994C102.8 211.737 103.45 210.777 104.233 210.113C105.012 209.439 105.879 209.021 106.834 208.859C107.792 208.69 108.784 208.737 109.811 209.001L108.915 211.18C108.281 211.034 107.658 211.006 107.048 211.099C106.441 211.184 105.881 211.433 105.368 211.847C104.847 212.258 104.414 212.884 104.067 213.727C103.755 214.488 103.623 215.203 103.673 215.875C103.722 216.546 103.933 217.17 104.303 217.744C104.674 218.319 105.191 218.848 105.855 219.332C106.521 219.809 107.317 220.237 108.243 220.618L109.541 221.151C110.49 221.541 111.382 221.78 112.216 221.868C113.054 221.949 113.822 221.89 114.519 221.693C115.209 221.492 115.806 221.162 116.312 220.701C116.822 220.233 117.22 219.649 117.508 218.949C117.827 218.174 118.021 217.519 118.091 216.984C118.154 216.447 118.15 216.006 118.081 215.66C118.004 215.312 117.912 215.032 117.806 214.821L114.125 213.308L112.561 217.113L110.8 216.389L113.255 210.417Z" fill="#E6E6E6" fill-opacity="0.4"/>
<path d="M124.527 202.516L118.475 199.417C118.011 199.18 117.561 199.068 117.124 199.082C116.684 199.085 116.275 199.223 115.897 199.496C115.52 199.769 115.192 200.177 114.914 200.72C114.654 201.227 114.513 201.717 114.49 202.19C114.471 202.656 114.547 203.07 114.718 203.432C114.893 203.786 115.144 204.047 115.47 204.214L114.44 206.224C114.02 206.009 113.659 205.687 113.358 205.258C113.056 204.829 112.842 204.327 112.717 203.751C112.588 203.163 112.572 202.534 112.67 201.861C112.764 201.178 112.992 200.481 113.356 199.771C113.794 198.917 114.324 198.238 114.948 197.734C115.575 197.223 116.277 196.934 117.053 196.865C117.825 196.785 118.65 196.969 119.526 197.418L125.002 200.223C125.393 200.423 125.826 200.604 126.302 200.765C126.781 200.919 127.215 201.008 127.604 201.034L127.778 201.123L126.704 203.22C126.42 203.203 126.071 203.125 125.658 202.986C125.237 202.844 124.86 202.687 124.527 202.516ZM119.587 199.548L121.011 200.249L119.97 202.281C119.677 202.853 119.463 203.388 119.327 203.886C119.184 204.379 119.125 204.824 119.15 205.221C119.176 205.618 119.285 205.967 119.479 206.267C119.665 206.564 119.939 206.805 120.302 206.99C120.671 207.18 121.05 207.269 121.44 207.258C121.83 207.247 122.2 207.122 122.552 206.881C122.9 206.63 123.2 206.258 123.453 205.765C123.768 205.15 123.916 204.54 123.896 203.935C123.876 203.331 123.749 202.795 123.513 202.326C123.281 201.851 122.993 201.512 122.649 201.308L124.056 200.945C124.334 201.152 124.601 201.462 124.855 201.875C125.109 202.289 125.31 202.771 125.458 203.322C125.602 203.863 125.655 204.447 125.616 205.076C125.573 205.695 125.389 206.323 125.062 206.96C124.654 207.757 124.141 208.376 123.521 208.818C122.906 209.252 122.252 209.502 121.56 209.569C120.864 209.624 120.19 209.484 119.538 209.15C118.908 208.828 118.417 208.421 118.065 207.93C117.706 207.435 117.486 206.874 117.404 206.247C117.316 205.617 117.355 204.933 117.522 204.196C117.69 203.458 117.979 202.688 118.391 201.884L119.587 199.548Z" fill="#E6E6E6" fill-opacity="0.4"/>
<path d="M120.767 191.832L129.706 197.499L128.49 199.416L117.335 192.344L118.486 190.53L120.767 191.832ZM123.457 194.086L122.864 194.954C122.106 194.463 121.464 193.917 120.94 193.315C120.409 192.708 120.023 192.064 119.782 191.381C119.54 190.697 119.468 189.991 119.564 189.262C119.653 188.529 119.933 187.791 120.404 187.048C120.735 186.526 121.115 186.093 121.545 185.749C121.969 185.4 122.441 185.165 122.962 185.042C123.483 184.92 124.047 184.926 124.655 185.061C125.263 185.196 125.918 185.486 126.619 185.93L134.053 190.643L132.843 192.55L125.503 187.896C124.919 187.526 124.388 187.329 123.911 187.306C123.439 187.277 123.01 187.39 122.625 187.648C122.234 187.9 121.885 188.267 121.58 188.748C121.223 189.312 121.024 189.846 120.984 190.35C120.944 190.855 121.027 191.332 121.234 191.781C121.44 192.23 121.738 192.649 122.126 193.04C122.512 193.42 122.956 193.768 123.457 194.086ZM126.988 186.193L126.569 187.719C125.961 187.325 125.437 186.853 124.995 186.303C124.558 185.746 124.237 185.143 124.033 184.493C123.832 183.836 123.779 183.152 123.874 182.441C123.961 181.725 124.229 181.014 124.678 180.306C125.057 179.708 125.472 179.229 125.922 178.868C126.376 178.501 126.868 178.264 127.399 178.157C127.927 178.039 128.497 178.059 129.11 178.216C129.724 178.373 130.381 178.674 131.082 179.119L138.412 183.766L137.196 185.684L129.845 181.023C129.22 180.627 128.672 180.419 128.202 180.401C127.73 180.371 127.311 180.491 126.947 180.762C126.581 181.021 126.243 181.394 125.933 181.882C125.668 182.301 125.505 182.718 125.444 183.133C125.384 183.547 125.411 183.945 125.526 184.326C125.634 184.703 125.812 185.052 126.061 185.374C126.314 185.689 126.623 185.962 126.988 186.193Z" fill="#E6E6E6" fill-opacity="0.4"/>
<path d="M131.517 171.12L142.096 179.028L140.736 180.847L130.157 172.939L131.517 171.12ZM127.249 170.978C126.956 170.759 126.774 170.485 126.703 170.158C126.638 169.825 126.737 169.482 127 169.13C127.258 168.785 127.556 168.596 127.895 168.565C128.238 168.527 128.556 168.617 128.85 168.837C129.13 169.046 129.301 169.321 129.361 169.661C129.42 169.99 129.321 170.327 129.063 170.672C128.799 171.024 128.502 171.218 128.17 171.255C127.836 171.28 127.529 171.187 127.249 170.978Z" fill="#E6E6E6" fill-opacity="0.4"/>
<path d="M138.035 167.292L146.008 173.952L144.56 175.685L134.423 167.217L135.793 165.578L138.035 167.292ZM140.211 169.809L139.58 170.507C138.892 169.922 138.338 169.284 137.918 168.594C137.492 167.898 137.211 167.187 137.077 166.459C136.942 165.732 136.965 165.019 137.145 164.321C137.324 163.612 137.669 162.951 138.18 162.339C138.598 161.84 139.042 161.447 139.513 161.162C139.978 160.872 140.475 160.709 141.003 160.673C141.537 160.631 142.1 160.731 142.694 160.972C143.281 161.209 143.909 161.606 144.578 162.164L151.22 167.713L149.764 169.455L143.103 163.891C142.572 163.447 142.082 163.171 141.633 163.061C141.178 162.946 140.754 162.978 140.36 163.158C139.959 163.332 139.576 163.638 139.211 164.075C138.851 164.506 138.613 164.975 138.497 165.483C138.386 165.984 138.383 166.495 138.487 167.018C138.597 167.533 138.798 168.035 139.09 168.523C139.382 169 139.755 169.429 140.211 169.809Z" fill="#E6E6E6" fill-opacity="0.4"/>
<path d="M149.979 149.803L151.412 148.335L160.664 157.363C161.497 158.176 162.043 159.038 162.302 159.95C162.56 160.862 162.546 161.768 162.257 162.67C161.981 163.571 161.459 164.415 160.692 165.201C160.373 165.527 159.946 165.861 159.409 166.201C158.884 166.541 158.291 166.805 157.632 166.991C156.984 167.177 156.317 167.214 155.631 167.102L155.496 165.317C156.36 165.387 157.096 165.297 157.703 165.048C158.316 164.793 158.829 164.453 159.244 164.028C159.744 163.515 160.08 162.979 160.252 162.418C160.423 161.858 160.419 161.291 160.239 160.718C160.071 160.144 159.713 159.591 159.166 159.056L151.914 151.981L149.979 149.803ZM148.46 161.027L148.277 160.848C147.554 160.143 146.981 159.419 146.558 158.676C146.134 157.922 145.866 157.177 145.754 156.442C145.647 155.701 145.704 154.989 145.926 154.307C146.142 153.62 146.531 152.988 147.094 152.411C147.673 151.817 148.284 151.401 148.926 151.163C149.567 150.913 150.237 150.827 150.934 150.905C151.631 150.971 152.344 151.184 153.074 151.543C153.803 151.903 154.552 152.389 155.319 153.001L156.123 153.785C156.753 154.525 157.255 155.259 157.626 155.985C158.003 156.705 158.233 157.413 158.317 158.109C158.406 158.798 158.336 159.469 158.109 160.122C157.875 160.77 157.465 161.394 156.88 161.994C156.329 162.559 155.709 162.955 155.021 163.182C154.339 163.403 153.623 163.467 152.874 163.372C152.125 163.278 151.374 163.034 150.621 162.64C149.868 162.235 149.147 161.697 148.46 161.027ZM149.854 159.231L150.037 159.41C150.509 159.871 150.997 160.256 151.502 160.566C152.012 160.871 152.521 161.077 153.029 161.186C153.542 161.289 154.042 161.272 154.53 161.133C155.012 160.989 155.465 160.699 155.892 160.262C156.415 159.726 156.733 159.173 156.847 158.601C156.961 158.03 156.931 157.461 156.757 156.893C156.588 156.32 156.343 155.762 156.02 155.219L153.914 153.165C153.531 152.916 153.126 152.714 152.698 152.558C152.27 152.391 151.837 152.298 151.4 152.281C150.962 152.251 150.525 152.32 150.09 152.487C149.655 152.653 149.238 152.94 148.84 153.348C148.408 153.791 148.129 154.263 148.003 154.765C147.877 155.256 147.874 155.76 147.996 156.276C148.117 156.781 148.339 157.288 148.662 157.796C148.985 158.292 149.382 158.771 149.854 159.231Z" fill="#E6E6E6" fill-opacity="0.4"/>
<path d="M176.31 144.109L173.36 146.36L172.216 144.822L175.147 142.586C176.156 141.815 176.837 140.963 177.189 140.029C177.536 139.089 177.586 138.109 177.34 137.089C177.095 136.057 176.58 135.027 175.795 133.998L175.136 133.135C174.519 132.326 173.874 131.682 173.201 131.203C172.523 130.717 171.831 130.4 171.125 130.253C170.414 130.1 169.701 130.117 168.984 130.305C168.275 130.489 167.57 130.847 166.872 131.38L163.689 133.809L162.519 132.276L165.702 129.847C166.627 129.141 167.59 128.652 168.59 128.38C169.585 128.101 170.58 128.043 171.574 128.206C172.57 128.357 173.53 128.73 174.455 129.324C175.375 129.912 176.224 130.717 177.005 131.74L177.649 132.584C178.429 133.606 178.984 134.642 179.313 135.69C179.638 136.732 179.738 137.756 179.615 138.762C179.498 139.762 179.163 140.719 178.611 141.631C178.06 142.533 177.293 143.359 176.31 144.109ZM163.577 131.469L174.359 145.598L172.486 147.027L161.704 132.898L163.577 131.469Z" fill="#E6E6E6" fill-opacity="0.4"/>
<path d="M178.557 120.653L188.404 135.449L186.443 136.754L176.595 121.958L178.557 120.653Z" fill="#E6E6E6" fill-opacity="0.4"/>
<path d="M195.076 131.258L191.868 133.124L190.925 131.455L194.112 129.601C195.21 128.963 195.991 128.203 196.457 127.32C196.918 126.43 197.091 125.464 196.974 124.421C196.86 123.367 196.477 122.281 195.827 121.162L195.281 120.223C194.769 119.344 194.21 118.624 193.602 118.065C192.99 117.498 192.343 117.097 191.661 116.863C190.974 116.622 190.264 116.551 189.53 116.648C188.803 116.741 188.06 117.009 187.3 117.451L183.839 119.464L182.869 117.797L186.33 115.784C187.336 115.199 188.352 114.834 189.379 114.688C190.401 114.536 191.395 114.603 192.362 114.888C193.331 115.162 194.237 115.652 195.08 116.357C195.919 117.056 196.662 117.96 197.308 119.072L197.842 119.99C198.489 121.101 198.91 122.198 199.106 123.28C199.298 124.354 199.27 125.383 199.022 126.365C198.781 127.343 198.33 128.25 197.668 129.087C197.009 129.912 196.145 130.636 195.076 131.258ZM184.019 117.128L192.955 132.492L190.918 133.676L181.983 118.312L184.019 117.128Z" fill="#E6E6E6" fill-opacity="0.4"/>
<path d="M206.897 105.116L213.936 121.436L211.772 122.369L204.734 106.048L206.897 105.116ZM216.901 109.509L217.665 111.28L210.357 114.432L209.593 112.661L216.901 109.509ZM214.845 101.688L215.608 103.459L207.19 107.09L206.427 105.319L214.845 101.688Z" fill="#E6E6E6" fill-opacity="0.4"/>
<path d="M220.709 104.424L225.304 116.807L223.176 117.597L218.58 105.214L220.709 104.424ZM217.201 101.989C217.074 101.646 217.069 101.318 217.188 101.005C217.313 100.689 217.582 100.455 217.994 100.302C218.399 100.152 218.752 100.155 219.053 100.312C219.362 100.467 219.58 100.716 219.708 101.059C219.829 101.387 219.824 101.711 219.69 102.029C219.561 102.337 219.295 102.566 218.89 102.716C218.478 102.869 218.123 102.871 217.825 102.721C217.531 102.561 217.323 102.317 217.201 101.989Z" fill="#E6E6E6" fill-opacity="0.4"/>
<path d="M228.434 104.678L231.505 114.602L229.348 115.27L225.443 102.652L227.484 102.021L228.434 104.678ZM228.892 107.974L227.983 108.217C227.723 107.352 227.605 106.515 227.628 105.707C227.648 104.892 227.799 104.142 228.082 103.458C228.364 102.775 228.771 102.189 229.301 101.701C229.837 101.203 230.486 100.836 231.248 100.6C231.87 100.408 232.456 100.32 233.007 100.337C233.555 100.346 234.06 100.48 234.523 100.737C234.994 100.992 235.413 101.382 235.78 101.907C236.144 102.424 236.455 103.099 236.713 103.931L239.271 112.199L237.102 112.87L234.537 104.579C234.332 103.918 234.071 103.419 233.754 103.083C233.435 102.739 233.061 102.535 232.632 102.472C232.201 102.401 231.714 102.45 231.17 102.618C230.633 102.784 230.178 103.048 229.805 103.411C229.439 103.771 229.159 104.199 228.963 104.694C228.774 105.186 228.67 105.717 228.65 106.286C228.635 106.844 228.716 107.407 228.892 107.974Z" fill="#E6E6E6" fill-opacity="0.4"/>
<path d="M249.471 107.371L247.941 100.746C247.824 100.239 247.619 99.8223 247.327 99.4972C247.041 99.1624 246.672 98.9386 246.22 98.8258C245.768 98.713 245.245 98.7252 244.65 98.8625C244.095 98.9906 243.629 99.1984 243.253 99.4857C242.884 99.7712 242.617 100.096 242.451 100.46C242.292 100.823 242.254 101.182 242.336 101.539L240.136 102.047C240.03 101.587 240.043 101.104 240.177 100.597C240.31 100.09 240.557 99.6027 240.917 99.1355C241.283 98.6584 241.754 98.2406 242.331 97.8819C242.914 97.5134 243.595 97.2395 244.372 97.0601C245.307 96.844 246.169 96.8123 246.955 96.9647C247.75 97.1153 248.424 97.465 248.977 98.014C249.535 98.5531 249.926 99.3024 250.147 100.262L251.531 106.257C251.63 106.685 251.771 107.132 251.954 107.6C252.145 108.065 252.356 108.455 252.587 108.769L252.631 108.959L250.335 109.489C250.166 109.261 250.001 108.944 249.84 108.539C249.678 108.125 249.555 107.736 249.471 107.371ZM248.558 101.681L248.939 103.222L246.715 103.735C246.088 103.88 245.541 104.061 245.073 104.277C244.603 104.486 244.225 104.728 243.938 105.003C243.65 105.278 243.454 105.586 243.349 105.928C243.243 106.262 243.235 106.627 243.327 107.023C243.42 107.428 243.596 107.775 243.856 108.066C244.115 108.357 244.45 108.56 244.86 108.674C245.277 108.778 245.755 108.768 246.294 108.643C246.968 108.488 247.53 108.208 247.979 107.803C248.429 107.399 248.757 106.956 248.963 106.474C249.177 105.99 249.251 105.551 249.185 105.157L250.369 105.999C250.39 106.345 250.325 106.748 250.172 107.209C250.02 107.67 249.781 108.135 249.454 108.603C249.134 109.061 248.721 109.478 248.215 109.854C247.715 110.22 247.116 110.483 246.418 110.644C245.546 110.846 244.741 110.852 244.004 110.663C243.275 110.472 242.662 110.133 242.166 109.646C241.675 109.15 241.348 108.545 241.183 107.831C241.024 107.141 241.019 106.504 241.167 105.918C241.314 105.325 241.601 104.795 242.028 104.329C242.453 103.855 243.002 103.444 243.673 103.097C244.345 102.75 245.121 102.475 246.001 102.272L248.558 101.681Z" fill="#E6E6E6" fill-opacity="0.4"/>
<path d="M256.267 97.7484L257.861 108.014L255.629 108.36L253.603 95.3084L255.714 94.9807L256.267 97.7484ZM256.24 101.076L255.306 101.184C255.175 100.29 255.18 99.4449 255.32 98.649C255.459 97.8451 255.718 97.1255 256.097 96.4902C256.476 95.8549 256.963 95.3345 257.559 94.929C258.162 94.5143 258.857 94.2457 259.645 94.1234C260.289 94.0235 260.881 94.0221 261.424 94.1191C261.964 94.2081 262.445 94.4135 262.866 94.7353C263.294 95.0558 263.652 95.5027 263.939 96.0759C264.224 96.641 264.433 97.3538 264.567 98.2142L265.895 106.767L263.651 107.115L262.32 98.5384C262.214 97.8549 262.028 97.3236 261.763 96.9447C261.497 96.5577 261.157 96.3017 260.742 96.1767C260.326 96.0436 259.837 96.0208 259.274 96.1082C258.719 96.1943 258.231 96.3895 257.808 96.6939C257.394 96.997 257.054 97.3792 256.788 97.8405C256.53 98.3006 256.35 98.8104 256.247 99.3698C256.152 99.92 256.149 100.489 256.24 101.076Z" fill="#E6E6E6" fill-opacity="0.4"/>
<path d="M274.155 104.343C274.69 104.299 275.176 104.149 275.612 103.893C276.049 103.637 276.398 103.307 276.658 102.902C276.919 102.488 277.049 102.033 277.049 101.535L279.191 101.36C279.213 102.142 279.009 102.89 278.577 103.603C278.153 104.307 277.568 104.897 276.823 105.374C276.078 105.843 275.238 106.116 274.306 106.192C273.316 106.272 272.438 106.168 271.671 105.88C270.913 105.591 270.266 105.162 269.729 104.593C269.201 104.024 268.784 103.355 268.476 102.588C268.176 101.813 267.99 100.983 267.918 100.099L267.876 99.5877C267.804 98.7036 267.854 97.8585 268.025 97.0526C268.204 96.2379 268.507 95.5068 268.936 94.8595C269.374 94.2115 269.943 93.6834 270.644 93.2751C271.354 92.8662 272.204 92.6214 273.193 92.5408C274.223 92.4569 275.141 92.5944 275.946 92.9534C276.75 93.3043 277.401 93.8228 277.898 94.509C278.402 95.1865 278.711 95.9778 278.826 96.8829L276.684 97.0574C276.6 96.5172 276.406 96.0391 276.102 95.6229C275.807 95.206 275.422 94.8863 274.946 94.6638C274.478 94.4325 273.944 94.3413 273.344 94.3902C272.655 94.4463 272.086 94.6315 271.638 94.9456C271.197 95.2509 270.858 95.646 270.62 96.1308C270.389 96.6068 270.236 97.1296 270.16 97.6992C270.091 98.26 270.08 98.8284 270.127 99.4043L270.169 99.9153C270.216 100.491 270.319 101.054 270.478 101.605C270.637 102.155 270.869 102.647 271.174 103.079C271.487 103.511 271.885 103.846 272.37 104.084C272.862 104.313 273.457 104.399 274.155 104.343Z" fill="#E6E6E6" fill-opacity="0.4"/>
<path d="M287.988 105.575C287.068 105.583 286.233 105.436 285.482 105.133C284.738 104.822 284.096 104.384 283.554 103.819C283.02 103.254 282.607 102.582 282.316 101.803C282.024 101.024 281.874 100.171 281.866 99.2435L281.862 98.7308C281.853 97.6566 282.003 96.6991 282.313 95.8581C282.623 95.0091 283.048 94.2892 283.589 93.6986C284.129 93.108 284.743 92.6592 285.432 92.3521C286.122 92.0451 286.836 91.8884 287.577 91.882C288.521 91.8738 289.336 92.0296 290.022 92.3492C290.717 92.6688 291.286 93.1196 291.731 93.7017C292.175 94.2757 292.507 94.9565 292.725 95.744C292.943 96.5234 293.057 97.377 293.065 98.3047L293.073 99.3178L283.21 99.4028L283.195 97.5596L290.799 97.4941L290.798 97.3232C290.76 96.7376 290.633 96.169 290.417 95.6174C290.209 95.0658 289.879 94.6129 289.429 94.2587C288.978 93.9045 288.366 93.7307 287.593 93.7374C287.08 93.7418 286.609 93.8557 286.18 94.0792C285.75 94.2945 285.383 94.615 285.077 95.0408C284.772 95.4667 284.536 95.9855 284.37 96.5973C284.205 97.2091 284.125 97.9137 284.132 98.7112L284.137 99.2239C284.142 99.8505 284.233 100.44 284.408 100.992C284.592 101.535 284.852 102.013 285.19 102.425C285.535 102.837 285.949 103.159 286.431 103.391C286.921 103.623 287.476 103.736 288.094 103.731C288.892 103.724 289.566 103.556 290.116 103.225C290.667 102.895 291.147 102.455 291.558 101.907L292.934 102.981C292.653 103.415 292.294 103.829 291.858 104.223C291.422 104.618 290.884 104.94 290.243 105.19C289.61 105.439 288.859 105.568 287.988 105.575Z" fill="#E6E6E6" fill-opacity="0.4"/>
<path d="M309.907 99.446L305.184 98.9511L305.384 97.0451L310.106 97.5399C311.021 97.6358 311.777 97.5677 312.374 97.3357C312.971 97.1037 313.426 96.7423 313.74 96.2514C314.061 95.7614 314.256 95.1845 314.326 94.5209C314.39 93.9138 314.316 93.3292 314.105 92.7671C313.902 92.2057 313.534 91.7335 313.001 91.3504C312.469 90.9592 311.746 90.7157 310.832 90.6198L306.655 90.1822L305.004 105.941L302.661 105.695L304.513 88.0185L311.033 88.7016C312.368 88.8416 313.473 89.1905 314.347 89.7486C315.222 90.3066 315.855 91.0194 316.247 91.8869C316.639 92.7463 316.781 93.698 316.672 94.7421C316.553 95.8752 316.213 96.8174 315.651 97.5686C315.09 98.3199 314.326 98.8576 313.359 99.1818C312.393 99.4979 311.242 99.586 309.907 99.446Z" fill="#E6E6E6" fill-opacity="0.4"/>
<path d="M318.244 100.933L318.296 100.657C318.471 99.721 318.77 98.8786 319.191 98.1296C319.615 97.3726 320.138 96.7461 320.76 96.2501C321.385 95.7461 322.092 95.3982 322.881 95.2066C323.672 95.007 324.519 94.9918 325.423 95.1611C326.335 95.3319 327.123 95.6534 327.788 96.1257C328.463 96.5915 329 97.1723 329.399 97.8681C329.808 98.5574 330.073 99.3314 330.194 100.19C330.316 101.041 330.29 101.934 330.114 102.87L330.063 103.146C329.887 104.082 329.589 104.925 329.167 105.674C328.745 106.423 328.218 107.048 327.586 107.551C326.963 108.047 326.256 108.395 325.465 108.594C324.684 108.787 323.837 108.799 322.926 108.628C322.014 108.457 321.225 108.139 320.558 107.675C319.893 107.203 319.356 106.622 318.947 105.933C318.547 105.237 318.287 104.464 318.164 103.613C318.042 102.762 318.069 101.869 318.244 100.933ZM320.515 101.073L320.464 101.349C320.342 101.996 320.304 102.623 320.348 103.227C320.394 103.823 320.527 104.37 320.749 104.867C320.978 105.365 321.301 105.786 321.717 106.129C322.135 106.464 322.651 106.689 323.267 106.804C323.875 106.918 324.43 106.894 324.933 106.731C325.445 106.562 325.894 106.286 326.28 105.903C326.666 105.52 326.989 105.059 327.247 104.519C327.515 103.973 327.709 103.376 327.831 102.728L327.883 102.452C328.002 101.812 328.035 101.194 327.982 100.596C327.938 99.9913 327.801 99.4399 327.571 98.9415C327.351 98.4366 327.033 98.0128 326.617 97.6699C326.209 97.3286 325.697 97.1002 325.081 96.9849C324.473 96.871 323.914 96.8986 323.402 97.0677C322.898 97.2383 322.448 97.5183 322.052 97.9078C321.666 98.2908 321.343 98.7561 321.083 99.3035C320.824 99.843 320.635 100.433 320.515 101.073Z" fill="#E6E6E6" fill-opacity="0.4"/>
<path d="M342.257 108.313C342.365 107.913 342.397 107.542 342.354 107.202C342.32 106.856 342.184 106.516 341.946 106.182C341.715 105.85 341.363 105.498 340.889 105.126C340.424 104.757 339.819 104.345 339.073 103.892C338.292 103.412 337.6 102.927 336.999 102.437C336.4 101.938 335.911 101.423 335.531 100.891C335.152 100.359 334.902 99.7993 334.783 99.2108C334.663 98.6224 334.693 97.9942 334.872 97.3262C335.052 96.6582 335.356 96.0783 335.783 95.5865C336.21 95.0947 336.735 94.7092 337.358 94.4301C337.991 94.1453 338.697 93.9812 339.475 93.9379C340.254 93.8945 341.083 93.9912 341.963 94.228C343.252 94.5747 344.278 95.1161 345.041 95.8523C345.813 96.5826 346.328 97.4081 346.586 98.3287C346.847 99.2414 346.856 100.146 346.615 101.042L344.352 100.433C344.525 99.7883 344.541 99.1815 344.399 98.6124C344.259 98.0355 343.949 97.5305 343.467 97.0975C342.987 96.6566 342.319 96.3209 341.462 96.0905C340.653 95.8727 339.952 95.8148 339.36 95.9168C338.768 96.0188 338.286 96.2431 337.915 96.5898C337.551 96.9387 337.298 97.3803 337.154 97.9147C337.057 98.2762 337.042 98.6263 337.111 98.9651C337.19 99.2982 337.357 99.6338 337.612 99.9719C337.874 100.312 338.228 100.656 338.674 101.004C339.128 101.353 339.682 101.721 340.336 102.108C341.237 102.645 341.995 103.178 342.612 103.706C343.228 104.234 343.707 104.772 344.049 105.319C344.4 105.86 344.614 106.428 344.69 107.021C344.777 107.609 344.73 108.237 344.55 108.905C344.362 109.604 344.05 110.199 343.615 110.689C343.18 111.178 342.645 111.553 342.011 111.812C341.377 112.071 340.66 112.211 339.863 112.233C339.075 112.248 338.229 112.134 337.325 111.891C336.531 111.678 335.779 111.357 335.068 110.93C334.365 110.505 333.758 109.988 333.248 109.379C332.746 108.771 332.392 108.095 332.189 107.349C331.995 106.597 332.013 105.793 332.243 104.937L334.507 105.546C334.348 106.135 334.326 106.673 334.439 107.158C334.555 107.636 334.773 108.065 335.092 108.446C335.418 108.829 335.815 109.155 336.282 109.424C336.759 109.687 337.273 109.893 337.823 110.041C338.617 110.254 339.318 110.325 339.927 110.253C340.537 110.181 341.038 109.978 341.431 109.646C341.831 109.315 342.107 108.871 342.257 108.313Z" fill="#E6E6E6" fill-opacity="0.4"/>
<path d="M357.903 99.488L351.956 116.237L349.77 115.461L355.717 98.712L357.903 99.488ZM363.286 101.399L362.641 103.217L349.699 98.6223L350.345 96.8048L363.286 101.399Z" fill="#E6E6E6" fill-opacity="0.4"/>
<path d="M375.269 126.546L372.005 124.779L372.939 123.105L376.181 124.86C377.298 125.465 378.354 125.736 379.35 125.674C380.35 125.604 381.265 125.248 382.094 124.605C382.934 123.959 383.662 123.067 384.278 121.929L384.796 120.973C385.28 120.079 385.603 119.226 385.764 118.416C385.929 117.598 385.933 116.837 385.778 116.133C385.626 115.422 385.318 114.778 384.852 114.202C384.394 113.63 383.778 113.135 383.005 112.716L379.484 110.81L380.402 109.114L383.923 111.02C384.947 111.574 385.788 112.252 386.446 113.052C387.108 113.846 387.569 114.729 387.829 115.703C388.1 116.673 388.154 117.701 387.991 118.789C387.832 119.869 387.446 120.974 386.834 122.105L386.329 123.039C385.717 124.169 385 125.1 384.179 125.831C383.361 126.554 382.469 127.066 381.502 127.366C380.541 127.67 379.532 127.757 378.472 127.628C377.424 127.495 376.357 127.135 375.269 126.546ZM381.572 109.748L373.111 125.378L371.039 124.256L379.5 108.626L381.572 109.748Z" fill="#E6E6E6" fill-opacity="0.4"/>
<path d="M395.412 136.281L394.361 137.884L386.491 132.723L387.542 131.121L395.412 136.281ZM396.635 118.121L386.889 132.985L384.919 131.693L394.664 116.829L396.635 118.121ZM398.876 128.729L397.825 130.331L390.996 125.853L392.046 124.251L398.876 128.729ZM404.005 122.954L402.947 124.567L395.179 119.473L396.237 117.86L404.005 122.954Z" fill="#E6E6E6" fill-opacity="0.4"/>
<path d="M408.791 126.623L408.042 134.629L415.576 131.818L417.756 133.488L407.947 137.062L407.057 147.681L404.857 145.997L405.601 137.818L397.898 140.668L395.698 138.983L405.718 135.355L406.61 124.954L408.791 126.623Z" fill="#E6E6E6" fill-opacity="0.4"/>
</svg>
