<svg width="481" height="480" viewBox="0 0 481 480" fill="none" xmlns="http://www.w3.org/2000/svg">
<path d="M467.796 253.002L467.837 251.667C468.337 251.583 468.802 251.418 469.231 251.17C469.665 250.928 470.046 250.618 470.375 250.239C470.705 249.861 470.964 249.429 471.155 248.942C471.345 248.455 471.449 247.925 471.467 247.353C471.495 246.435 471.282 245.589 470.827 244.818C470.372 244.05 469.688 243.425 468.775 242.942C467.866 242.464 466.742 242.204 465.402 242.163C464.053 242.121 462.911 242.311 461.974 242.732C461.037 243.158 460.318 243.74 459.817 244.477C459.32 245.22 459.058 246.05 459.029 246.969C459.012 247.541 459.083 248.076 459.243 248.574C459.402 249.071 459.633 249.519 459.933 249.917C460.238 250.315 460.6 250.648 461.018 250.917C461.436 251.19 461.891 251.384 462.385 251.499L462.344 252.834C461.68 252.695 461.065 252.453 460.498 252.109C459.935 251.769 459.446 251.342 459.031 250.827C458.616 250.317 458.297 249.734 458.076 249.078C457.855 248.422 457.756 247.706 457.78 246.93C457.818 245.709 458.156 244.635 458.796 243.707C459.441 242.779 460.33 242.063 461.463 241.558C462.596 241.058 463.923 240.831 465.442 240.878C466.961 240.925 468.271 241.233 469.371 241.802C470.471 242.376 471.312 243.146 471.893 244.111C472.479 245.077 472.754 246.17 472.716 247.391C472.692 248.167 472.549 248.876 472.288 249.517C472.031 250.158 471.678 250.72 471.227 251.204C470.781 251.692 470.266 252.088 469.684 252.392C469.101 252.701 468.472 252.904 467.796 253.002Z" fill="white" fill-opacity="0.4"/>
<path d="M463.631 268.661C462.123 268.509 460.838 268.109 459.776 267.459C458.718 266.811 457.93 265.984 457.413 264.98C456.899 263.982 456.704 262.872 456.826 261.652C456.949 260.432 457.362 259.381 458.064 258.5C458.771 257.624 459.707 256.974 460.873 256.549C462.043 256.129 463.382 255.994 464.89 256.146C466.397 256.298 467.68 256.696 468.738 257.34C469.801 257.989 470.589 258.815 471.102 259.819C471.619 260.823 471.817 261.932 471.695 263.148C471.572 264.368 471.157 265.416 470.45 266.292C469.748 267.173 468.811 267.826 467.641 268.251C466.475 268.676 465.138 268.813 463.631 268.661ZM463.76 267.375C465.056 267.505 466.187 267.4 467.154 267.06C468.126 266.719 468.894 266.2 469.459 265.5C470.025 264.8 470.355 263.974 470.451 263.023C470.546 262.076 470.386 261.203 469.972 260.405C469.557 259.606 468.91 258.942 468.031 258.411C467.151 257.884 466.061 257.556 464.761 257.425C463.465 257.295 462.334 257.4 461.367 257.74C460.4 258.081 459.632 258.601 459.062 259.3C458.496 260 458.166 260.826 458.07 261.777C457.975 262.729 458.134 263.604 458.549 264.402C458.963 265.205 459.61 265.87 460.489 266.396C461.374 266.923 462.464 267.249 463.76 267.375Z" fill="white" fill-opacity="0.4"/>
<path d="M468.392 284.752L454.055 282.3L454.272 281.026L467.727 274.608L467.746 274.496L455.74 272.443L455.964 271.134L470.301 273.586L470.084 274.853L456.611 281.297L456.592 281.409L468.612 283.464L468.392 284.752Z" fill="white" fill-opacity="0.4"/>
<path d="M466.36 288.729L467.52 289.006L465.072 299.265L463.912 298.988L464.981 294.504L451.994 291.405L452.302 290.113L465.29 293.212L466.36 288.729Z" fill="white" fill-opacity="0.4"/>
<path d="M450.127 298.787L450.532 297.455L462.911 306.745L462.498 308.105L447.043 308.939L447.448 307.607L461.039 306.971L461.068 306.876L450.127 298.787ZM455.171 301.365L453.073 308.27L451.932 307.923L454.029 301.019L455.171 301.365Z" fill="white" fill-opacity="0.4"/>
<path d="M451.484 325.788L451.953 324.538C452.453 324.62 452.947 324.613 453.433 324.517C453.922 324.427 454.383 324.256 454.816 324.004C455.249 323.752 455.635 323.426 455.972 323.027C456.309 322.627 456.578 322.159 456.779 321.623C457.102 320.763 457.172 319.894 456.991 319.017C456.808 318.144 456.361 317.332 455.652 316.58C454.946 315.835 453.965 315.227 452.711 314.756C451.447 314.282 450.304 314.093 449.282 314.19C448.258 314.291 447.389 314.61 446.677 315.147C445.968 315.69 445.452 316.392 445.129 317.252C444.928 317.788 444.823 318.318 444.814 318.84C444.805 319.363 444.878 319.861 445.035 320.334C445.195 320.809 445.43 321.241 445.739 321.63C446.047 322.023 446.416 322.354 446.846 322.622L446.377 323.872C445.794 323.527 445.289 323.1 444.863 322.591C444.44 322.088 444.114 321.526 443.887 320.905C443.659 320.288 443.545 319.633 443.547 318.941C443.549 318.249 443.686 317.54 443.959 316.812C444.388 315.669 445.055 314.761 445.959 314.089C446.868 313.418 447.941 313.027 449.176 312.914C450.411 312.806 451.739 313.018 453.162 313.552C454.585 314.086 455.726 314.8 456.584 315.694C457.441 316.592 457.989 317.591 458.228 318.692C458.471 319.795 458.379 320.918 457.949 322.062C457.677 322.789 457.313 323.414 456.859 323.936C456.41 324.461 455.894 324.879 455.311 325.191C454.732 325.51 454.117 325.719 453.467 325.819C452.816 325.924 452.155 325.914 451.484 325.788Z" fill="white" fill-opacity="0.4"/>
<path d="M453.339 330.008L454.428 330.497L450.103 340.117L449.015 339.627L450.905 335.423L438.727 329.948L439.271 328.737L451.449 334.212L453.339 330.008Z" fill="white" fill-opacity="0.4"/>
<path d="M446.003 348.376L445.247 349.711L431.621 348.061L431.558 348.172L439.984 359.007L439.228 360.341L426.571 353.175L427.187 352.088L437.403 357.872L437.459 357.773L429.66 347.718L430.255 346.667L442.889 348.181L442.945 348.082L432.729 342.298L433.345 341.21L446.003 348.376Z" fill="white" fill-opacity="0.4"/>
<path d="M424.53 356.329L436.686 364.316L432.052 371.368L431.055 370.713L434.959 364.771L430.383 361.764L426.725 367.332L425.727 366.676L429.386 361.109L424.797 358.094L420.815 364.154L419.818 363.499L424.53 356.329Z" fill="white" fill-opacity="0.4"/>
<path d="M405.971 396.529L406.862 395.535C407.299 395.793 407.761 395.966 408.248 396.053C408.736 396.147 409.228 396.156 409.723 396.078C410.219 396.001 410.696 395.837 411.155 395.588C411.614 395.338 412.035 395 412.417 394.573C413.031 393.889 413.412 393.106 413.562 392.222C413.708 391.343 413.588 390.424 413.2 389.466C412.813 388.515 412.12 387.592 411.123 386.697C410.118 385.796 409.122 385.205 408.134 384.924C407.143 384.646 406.218 384.628 405.36 384.869C404.501 385.117 403.766 385.583 403.153 386.267C402.77 386.694 402.48 387.149 402.281 387.632C402.083 388.116 401.971 388.607 401.944 389.104C401.921 389.605 401.983 390.093 402.13 390.568C402.273 391.046 402.497 391.488 402.801 391.894L401.909 392.888C401.491 392.355 401.176 391.773 400.964 391.144C400.753 390.522 400.654 389.881 400.668 389.219C400.679 388.561 400.811 387.91 401.064 387.266C401.318 386.622 401.703 386.011 402.222 385.433C403.037 384.523 403.988 383.92 405.075 383.622C406.166 383.328 407.307 383.353 408.499 383.697C409.689 384.044 410.849 384.726 411.981 385.74C413.112 386.755 413.916 387.834 414.391 388.978C414.862 390.126 415.009 391.257 414.832 392.369C414.658 393.485 414.164 394.498 413.348 395.408C412.83 395.986 412.264 396.436 411.651 396.758C411.042 397.083 410.409 397.285 409.753 397.364C409.097 397.45 408.449 397.422 407.807 397.279C407.163 397.14 406.55 396.89 405.971 396.529Z" fill="white" fill-opacity="0.4"/>
<path d="M393.03 405.521C391.971 404.438 391.242 403.307 390.843 402.128C390.447 400.951 390.372 399.812 390.619 398.71C390.865 397.614 391.426 396.638 392.303 395.78C393.179 394.923 394.17 394.381 395.274 394.155C396.378 393.936 397.513 394.037 398.681 394.459C399.848 394.886 400.961 395.642 402.021 396.725C403.081 397.808 403.81 398.936 404.209 400.109C404.608 401.288 404.683 402.427 404.433 403.526C404.187 404.629 403.627 405.607 402.754 406.461C401.877 407.319 400.887 407.857 399.783 408.076C398.679 408.302 397.541 408.202 396.371 407.778C395.204 407.357 394.09 406.604 393.03 405.521ZM393.954 404.617C394.865 405.548 395.801 406.193 396.761 406.552C397.725 406.914 398.648 407.007 399.53 406.833C400.413 406.658 401.196 406.237 401.879 405.568C402.56 404.902 402.997 404.13 403.19 403.252C403.384 402.373 403.314 401.448 402.98 400.477C402.642 399.509 402.016 398.558 401.102 397.624C400.192 396.693 399.256 396.048 398.296 395.69C397.335 395.331 396.412 395.237 395.526 395.409C394.644 395.583 393.861 396.005 393.177 396.674C392.494 397.343 392.055 398.116 391.861 398.995C391.664 399.876 391.734 400.801 392.072 401.769C392.413 402.741 393.04 403.69 393.954 404.617Z" fill="white" fill-opacity="0.4"/>
<path d="M385.919 421.23L376.529 410.122L377.516 409.287L391.942 413.041L392.029 412.968L384.165 403.666L385.18 402.808L394.57 413.917L393.588 414.746L379.131 411L379.044 411.073L386.917 420.386L385.919 421.23Z" fill="white" fill-opacity="0.4"/>
<path d="M381.783 422.977L382.492 423.937L374.009 430.203L373.3 429.244L377.007 426.505L369.074 415.765L370.142 414.976L378.076 425.716L381.783 422.977Z" fill="white" fill-opacity="0.4"/>
<path d="M362.979 420.149L364.145 419.389L367.656 434.464L366.466 435.24L354.09 425.944L355.256 425.184L366.076 433.433L366.16 433.379L362.979 420.149ZM365.185 425.367L359.14 429.307L358.488 428.308L364.533 424.367L365.185 425.367Z" fill="white" fill-opacity="0.4"/>
<path d="M346.622 441.734L347.784 441.076C348.116 441.459 348.498 441.77 348.933 442.009C349.365 442.254 349.828 442.419 350.323 442.503C350.817 442.588 351.321 442.585 351.836 442.495C352.351 442.405 352.858 442.219 353.356 441.937C354.155 441.484 354.767 440.863 355.191 440.074C355.61 439.287 355.789 438.377 355.727 437.346C355.664 436.321 355.302 435.225 354.642 434.059C353.977 432.885 353.222 432.007 352.375 431.425C351.525 430.845 350.654 430.533 349.763 430.488C348.871 430.449 348.025 430.656 347.226 431.108C346.727 431.391 346.307 431.729 345.965 432.124C345.622 432.519 345.359 432.949 345.175 433.412C344.994 433.879 344.897 434.361 344.884 434.858C344.868 435.357 344.938 435.848 345.097 436.329L343.935 436.987C343.709 436.348 343.596 435.696 343.596 435.033C343.593 434.375 343.705 433.736 343.929 433.114C344.149 432.494 344.482 431.919 344.928 431.389C345.373 430.859 345.934 430.403 346.61 430.021C347.673 429.419 348.767 429.15 349.892 429.215C351.019 429.284 352.093 429.672 353.113 430.379C354.129 431.087 355.012 432.103 355.761 433.426C356.509 434.748 356.926 436.028 357.011 437.264C357.092 438.502 356.871 439.62 356.348 440.618C355.827 441.621 355.035 442.423 353.972 443.024C353.296 443.407 352.617 443.653 351.933 443.762C351.252 443.876 350.588 443.866 349.941 443.732C349.292 443.604 348.686 443.37 348.123 443.03C347.557 442.693 347.056 442.26 346.622 441.734Z" fill="white" fill-opacity="0.4"/>
<path d="M345.451 446.078L345.972 447.151L336.486 451.76L335.964 450.687L340.11 448.672L334.275 436.663L335.47 436.082L341.305 448.092L345.451 446.078Z" fill="white" fill-opacity="0.4"/>
<path d="M328.155 455.397L326.718 455.936L317.326 445.927L317.207 445.972L316.717 459.689L315.281 460.227L310.171 446.609L311.341 446.17L315.466 457.162L315.572 457.122L316.043 444.406L317.173 443.982L325.892 453.249L325.999 453.21L321.874 442.218L323.045 441.779L328.155 455.397Z" fill="white" fill-opacity="0.4"/>
<path d="M306.547 447.724L310.722 461.657L302.64 464.079L302.297 462.936L309.107 460.896L307.535 455.65L301.154 457.563L300.811 456.42L307.193 454.507L305.617 449.248L298.671 451.33L298.328 450.187L306.547 447.724Z" fill="white" fill-opacity="0.4"/>
<path d="M266.625 466.556L267.947 466.366C268.116 466.844 268.359 467.273 268.677 467.654C268.991 468.039 269.362 468.361 269.792 468.62C270.221 468.879 270.692 469.06 271.204 469.164C271.716 469.267 272.256 469.278 272.823 469.197C273.732 469.066 274.528 468.711 275.21 468.13C275.887 467.549 276.385 466.768 276.703 465.784C277.017 464.807 277.079 463.655 276.889 462.328C276.697 460.992 276.313 459.9 275.737 459.049C275.156 458.2 274.459 457.592 273.645 457.226C272.828 456.865 271.965 456.749 271.056 456.88C270.489 456.961 269.974 457.124 269.511 457.367C269.049 457.61 268.648 457.914 268.308 458.279C267.968 458.648 267.703 459.061 267.51 459.52C267.313 459.978 267.2 460.461 267.172 460.967L265.851 461.157C265.873 460.479 266.005 459.831 266.246 459.213C266.484 458.6 266.82 458.045 267.256 457.547C267.687 457.05 268.206 456.636 268.814 456.305C269.421 455.974 270.11 455.753 270.878 455.643C272.088 455.469 273.204 455.617 274.228 456.087C275.253 456.562 276.112 457.314 276.805 458.344C277.493 459.374 277.945 460.641 278.161 462.146C278.377 463.65 278.3 464.993 277.929 466.175C277.553 467.358 276.94 468.319 276.089 469.058C275.24 469.802 274.21 470.261 273.001 470.434C272.232 470.544 271.51 470.526 270.833 470.379C270.157 470.237 269.543 469.986 268.989 469.625C268.431 469.27 267.952 468.832 267.552 468.31C267.147 467.79 266.838 467.205 266.625 466.556Z" fill="white" fill-opacity="0.4"/>
<path d="M250.731 465.108C250.62 463.597 250.793 462.262 251.249 461.103C251.705 459.949 252.383 459.031 253.283 458.347C254.178 457.669 255.237 457.285 256.46 457.195C257.683 457.106 258.789 457.331 259.778 457.87C260.763 458.415 261.565 459.225 262.185 460.3C262.801 461.38 263.165 462.676 263.275 464.187C263.386 465.698 263.216 467.03 262.764 468.184C262.308 469.342 261.63 470.261 260.73 470.939C259.831 471.623 258.772 472.009 257.554 472.098C256.331 472.188 255.227 471.961 254.242 471.416C253.253 470.876 252.448 470.066 251.828 468.987C251.208 467.912 250.842 466.619 250.731 465.108ZM252.02 465.013C252.116 466.312 252.414 467.408 252.917 468.301C253.42 469.2 254.064 469.867 254.851 470.303C255.638 470.739 256.509 470.922 257.462 470.852C258.412 470.782 259.244 470.474 259.958 469.928C260.673 469.382 261.216 468.63 261.587 467.672C261.954 466.714 262.089 465.584 261.993 464.281C261.898 462.982 261.599 461.886 261.097 460.992C260.594 460.099 259.95 459.432 259.162 458.991C258.375 458.555 257.505 458.372 256.551 458.442C255.597 458.512 254.763 458.82 254.048 459.366C253.329 459.913 252.786 460.665 252.419 461.622C252.053 462.585 251.92 463.715 252.02 465.013Z" fill="white" fill-opacity="0.4"/>
<path d="M245.756 457.456V472.001H244.463L235.869 459.821H235.756V472.001H234.427V457.456H235.713L244.335 469.65H244.449V457.456H245.756Z" fill="white" fill-opacity="0.4"/>
<path d="M230.237 471.192L230.163 472.383L219.636 471.732L219.71 470.541L224.311 470.825L225.134 457.498L226.46 457.58L225.636 470.907L230.237 471.192Z" fill="white" fill-opacity="0.4"/>
<path d="M217.624 456.907L219.006 457.079L211.966 470.863L210.556 470.688L207.094 455.602L208.476 455.773L211.424 469.056L211.522 469.069L217.624 456.907ZM215.945 462.317L208.784 461.429L208.93 460.245L216.091 461.133L215.945 462.317Z" fill="white" fill-opacity="0.4"/>
<path d="M191.155 462.819L192.466 463.069C192.471 463.576 192.561 464.061 192.738 464.524C192.909 464.99 193.156 465.416 193.478 465.8C193.8 466.185 194.186 466.509 194.637 466.773C195.088 467.038 195.595 467.223 196.158 467.331C197.06 467.503 197.928 467.425 198.762 467.097C199.591 466.769 200.316 466.191 200.936 465.365C201.551 464.542 201.984 463.472 202.235 462.156C202.488 460.831 202.48 459.672 202.211 458.681C201.937 457.689 201.476 456.887 200.826 456.277C200.17 455.67 199.391 455.28 198.489 455.108C197.926 455.001 197.387 454.987 196.87 455.067C196.354 455.147 195.875 455.304 195.435 455.538C194.995 455.777 194.609 456.081 194.278 456.452C193.942 456.822 193.679 457.242 193.488 457.711L192.176 457.461C192.418 456.828 192.753 456.258 193.182 455.751C193.606 455.249 194.105 454.833 194.678 454.504C195.247 454.174 195.873 453.951 196.556 453.835C197.238 453.72 197.961 453.735 198.723 453.88C199.923 454.109 200.931 454.612 201.747 455.39C202.562 456.172 203.13 457.162 203.451 458.361C203.767 459.559 203.782 460.904 203.498 462.397C203.213 463.89 202.703 465.135 201.968 466.133C201.229 467.129 200.336 467.839 199.292 468.261C198.246 468.688 197.124 468.788 195.924 468.559C195.161 468.413 194.483 468.161 193.892 467.802C193.299 467.448 192.799 467.011 192.392 466.49C191.98 465.972 191.669 465.402 191.46 464.779C191.247 464.155 191.145 463.502 191.155 462.819Z" fill="white" fill-opacity="0.4"/>
<path d="M187.506 465.401L187.211 466.558L176.991 463.954L177.286 462.798L181.752 463.936L185.049 450.997L186.336 451.325L183.039 464.264L187.506 465.401Z" fill="white" fill-opacity="0.4"/>
<path d="M168.298 461.364L166.853 460.847L166.158 447.139L166.038 447.096L156.797 457.245L155.353 456.728L160.258 443.034L161.434 443.456L157.476 454.508L157.583 454.547L166.162 445.149L167.298 445.556L167.96 458.263L168.067 458.302L172.026 447.249L173.202 447.671L168.298 461.364Z" fill="white" fill-opacity="0.4"/>
<path d="M156.815 441.56L151.049 454.913L143.303 451.569L143.776 450.473L150.303 453.291L152.474 448.264L146.358 445.623L146.831 444.528L152.947 447.169L155.123 442.129L148.466 439.254L148.939 438.159L156.815 441.56Z" fill="white" fill-opacity="0.4"/>
<path d="M114.155 430.191L115.287 430.9C115.107 431.374 115.016 431.859 115.013 432.354C115.004 432.851 115.079 433.337 115.24 433.812C115.401 434.287 115.643 434.729 115.968 435.139C116.292 435.549 116.697 435.906 117.183 436.21C117.962 436.697 118.799 436.939 119.695 436.936C120.587 436.93 121.471 436.654 122.349 436.109C123.22 435.565 124.011 434.725 124.722 433.589C125.438 432.445 125.851 431.363 125.959 430.341C126.064 429.318 125.924 428.403 125.54 427.599C125.149 426.795 124.564 426.15 123.785 425.663C123.3 425.359 122.802 425.15 122.291 425.037C121.781 424.925 121.279 424.898 120.784 424.956C120.286 425.019 119.816 425.164 119.373 425.389C118.926 425.612 118.529 425.908 118.181 426.277L117.049 425.568C117.504 425.065 118.023 424.655 118.606 424.339C119.183 424.024 119.798 423.817 120.452 423.719C121.103 423.617 121.766 423.636 122.444 423.776C123.122 423.915 123.79 424.191 124.449 424.603C125.484 425.251 126.241 426.085 126.72 427.106C127.196 428.13 127.366 429.259 127.231 430.492C127.091 431.723 126.618 432.983 125.812 434.271C125.005 435.559 124.079 436.535 123.033 437.198C121.982 437.859 120.894 438.197 119.767 438.212C118.637 438.232 117.555 437.917 116.52 437.269C115.861 436.857 115.322 436.377 114.9 435.828C114.476 435.283 114.168 434.694 113.978 434.061C113.781 433.429 113.699 432.785 113.73 432.129C113.757 431.47 113.898 430.824 114.155 430.191Z" fill="white" fill-opacity="0.4"/>
<path d="M102.929 418.818C103.821 417.592 104.815 416.685 105.911 416.095C107.005 415.509 108.116 415.245 109.244 415.305C110.365 415.365 111.422 415.756 112.413 416.477C113.405 417.199 114.104 418.085 114.511 419.136C114.911 420.188 115 421.324 114.779 422.546C114.552 423.768 113.992 424.991 113.101 426.217C112.21 427.442 111.219 428.349 110.129 428.938C109.033 429.528 107.922 429.791 106.797 429.728C105.669 429.669 104.611 429.28 103.623 428.561C102.631 427.84 101.936 426.953 101.536 425.901C101.129 424.85 101.038 423.712 101.261 422.487C101.482 421.266 102.038 420.043 102.929 418.818ZM103.975 419.578C103.209 420.631 102.729 421.661 102.535 422.668C102.339 423.678 102.4 424.604 102.719 425.445C103.039 426.286 103.585 426.988 104.358 427.551C105.128 428.11 105.962 428.413 106.861 428.457C107.759 428.502 108.659 428.279 109.561 427.787C110.459 427.293 111.293 426.517 112.062 425.461C112.828 424.408 113.307 423.378 113.501 422.371C113.695 421.364 113.633 420.438 113.317 419.594C112.998 418.753 112.452 418.051 111.678 417.488C110.905 416.925 110.069 416.622 109.17 416.577C108.268 416.53 107.368 416.753 106.469 417.247C105.568 417.745 104.737 418.522 103.975 419.578Z" fill="white" fill-opacity="0.4"/>
<path d="M86.4185 414.63L95.7683 403.488L96.7585 404.318L95.512 419.173L95.599 419.246L103.429 409.916L104.446 410.769L95.0962 421.912L94.1114 421.085L95.3453 406.201L95.2583 406.128L87.4195 415.47L86.4185 414.63Z" fill="white" fill-opacity="0.4"/>
<path d="M84.004 410.856L83.1789 411.717L75.5604 404.424L76.3855 403.562L79.7151 406.75L88.9485 397.105L89.9079 398.023L80.6744 407.668L84.004 410.856Z" fill="white" fill-opacity="0.4"/>
<path d="M83.6357 391.886L84.5836 392.906L70.3285 398.935L69.3613 397.895L76.4103 384.116L77.3582 385.135L71.0749 397.204L71.1427 397.276L83.6357 391.886ZM78.8709 394.949L73.9572 389.665L74.831 388.852L79.7447 394.137L78.8709 394.949Z" fill="white" fill-opacity="0.4"/>
<path d="M59.497 379.323L60.3403 380.359C60.0177 380.75 59.7752 381.179 59.613 381.647C59.4441 382.115 59.3592 382.599 59.3585 383.1C59.3578 383.602 59.445 384.099 59.6202 384.591C59.7954 385.084 60.0639 385.552 60.4257 385.996C61.0059 386.708 61.7205 387.207 62.5698 387.492C63.416 387.774 64.3425 387.798 65.349 387.564C66.349 387.33 67.3684 386.789 68.4073 385.943C69.4535 385.091 70.1925 384.199 70.6242 383.267C71.053 382.331 71.215 381.421 71.1103 380.535C70.9989 379.649 70.6532 378.849 70.073 378.137C69.7112 377.693 69.3068 377.335 68.86 377.064C68.4132 376.793 67.946 376.606 67.4585 376.502C66.9673 376.401 66.4758 376.386 65.984 376.457C65.4891 376.525 65.0175 376.677 64.5693 376.914L63.726 375.878C64.3183 375.548 64.9416 375.328 65.5958 375.216C66.2434 375.104 66.8927 375.106 67.5437 375.223C68.1918 375.337 68.8142 375.569 69.4111 375.919C70.0081 376.269 70.5517 376.746 71.0422 377.348C71.8137 378.295 72.2617 379.328 72.3863 380.448C72.5071 381.571 72.3048 382.695 71.7794 383.819C71.251 384.94 70.3976 385.98 69.2192 386.94C68.0408 387.9 66.8495 388.525 65.6452 388.816C64.4379 389.103 63.2985 389.073 62.2268 388.724C61.1515 388.379 60.2281 387.733 59.4566 386.785C58.9661 386.183 58.6097 385.555 58.3872 384.899C58.1611 384.247 58.0599 383.59 58.0836 382.93C58.1007 382.268 58.2296 381.632 58.4705 381.021C58.7083 380.406 59.0505 379.84 59.497 379.323Z" fill="white" fill-opacity="0.4"/>
<path d="M55.0153 378.951L54.0453 379.646L47.9036 371.072L48.8736 370.377L51.5577 374.124L62.4125 366.349L63.1859 367.428L52.3311 375.204L55.0153 378.951Z" fill="white" fill-opacity="0.4"/>
<path d="M43.1188 363.85L42.3386 362.53L50.5637 351.542L50.4987 351.432L36.9055 353.333L36.1253 352.012L48.6487 344.614L49.2845 345.69L39.1765 351.661L39.2343 351.759L51.8385 350.013L52.4526 351.053L44.8407 361.249L44.8985 361.347L55.0065 355.376L55.6423 356.452L43.1188 363.85Z" fill="white" fill-opacity="0.4"/>
<path d="M46.766 340.934L33.7546 347.436L29.9831 339.888L31.0504 339.355L34.2283 345.714L39.1266 343.267L36.1488 337.307L37.2161 336.774L40.194 342.733L45.105 340.279L41.8637 333.793L42.931 333.259L46.766 340.934Z" fill="white" fill-opacity="0.4"/>
<path d="M21.3718 304.877L21.784 306.147C21.3418 306.395 20.9605 306.708 20.64 307.086C20.3136 307.461 20.0595 307.882 19.8776 308.349C19.6957 308.816 19.5975 309.311 19.5828 309.834C19.5682 310.356 19.6493 310.89 19.8262 311.435C20.1097 312.308 20.5959 313.032 21.2846 313.605C21.9718 314.173 22.827 314.53 23.85 314.676C24.8671 314.819 26.0129 314.684 27.2874 314.27C28.5709 313.853 29.5823 313.289 30.3217 312.576C31.0596 311.859 31.5398 311.068 31.7622 310.204C31.9787 309.338 31.9452 308.467 31.6617 307.594C31.4848 307.049 31.2371 306.569 30.9184 306.155C30.5998 305.74 30.2319 305.397 29.8148 305.124C29.3932 304.853 28.9403 304.661 28.4561 304.55C27.9703 304.433 27.4757 304.405 26.9721 304.464L26.56 303.194C27.2315 303.1 27.8924 303.12 28.5427 303.252C29.187 303.381 29.7916 303.618 30.3563 303.963C30.9196 304.303 31.4163 304.744 31.8462 305.286C32.2761 305.829 32.6109 306.469 32.8506 307.208C33.2277 308.37 33.2719 309.495 32.9833 310.585C32.6901 311.675 32.0955 312.65 31.1992 313.508C30.3015 314.362 29.1299 315.024 27.6842 315.493C26.2385 315.962 24.9017 316.115 23.6737 315.951C22.4442 315.782 21.3928 315.342 20.5195 314.63C19.6418 313.919 19.0143 312.983 18.6372 311.821C18.3975 311.082 18.2924 310.367 18.3218 309.675C18.3468 308.985 18.4897 308.337 18.7505 307.729C19.0054 307.119 19.3557 306.572 19.8012 306.089C20.2453 305.601 20.7688 305.198 21.3718 304.877Z" fill="white" fill-opacity="0.4"/>
<path d="M20.12 289.191C21.5896 288.823 22.9343 288.764 24.1541 289.015C25.3692 289.266 26.3905 289.777 27.2178 290.546C28.0394 291.311 28.5993 292.289 28.8976 293.478C29.1958 294.668 29.1638 295.796 28.8017 296.863C28.4337 297.927 27.7735 298.856 26.8209 299.651C25.8625 300.443 24.6485 301.023 23.1788 301.392C21.7092 301.76 20.3673 301.821 19.1534 301.574C17.9336 301.323 16.9124 300.813 16.0896 300.043C15.2623 299.274 14.7001 298.297 14.403 297.112C14.1048 295.923 14.1396 294.796 14.5075 293.732C14.8697 292.665 15.5294 291.733 16.4866 290.937C17.4392 290.142 18.6503 289.56 20.12 289.191ZM20.4343 290.445C19.1713 290.762 18.1427 291.244 17.3485 291.892C16.5497 292.542 16.003 293.291 15.7084 294.141C15.4138 294.991 15.3829 295.88 15.6155 296.808C15.8469 297.731 16.293 298.498 16.9537 299.108C17.6144 299.719 18.4484 300.125 19.4557 300.326C20.4618 300.523 21.5986 300.463 22.8662 300.145C24.1292 299.828 25.1578 299.346 25.9521 298.698C26.7463 298.049 27.293 297.3 27.5921 296.449C27.8867 295.599 27.9177 294.71 27.6851 293.782C27.4525 292.854 27.0058 292.085 26.3451 291.475C25.6832 290.86 24.8492 290.454 23.8431 290.257C22.8324 290.061 21.6962 290.124 20.4343 290.445Z" fill="white" fill-opacity="0.4"/>
<path d="M10.1173 275.129L24.4452 272.622L24.668 273.896L14.1505 284.46L14.1701 284.572L26.1683 282.473L26.3972 283.781L12.0693 286.287L11.8478 285.021L22.3743 274.427L22.3547 274.315L10.3425 276.416L10.1173 275.129Z" fill="white" fill-opacity="0.4"/>
<path d="M10.787 271.407L9.60131 271.54L8.42477 261.059L9.6105 260.926L10.1247 265.506L23.3936 264.017L23.5418 265.337L10.2729 266.826L10.787 271.407Z" fill="white" fill-opacity="0.4"/>
<path d="M22.6176 256.139L22.6874 257.529L7.89488 252.974L7.82365 251.555L22.0855 245.541L22.1553 246.931L9.58045 252.128L9.58544 252.227L22.6176 256.139ZM16.9991 255.418L16.6372 248.211L17.8289 248.151L18.1907 255.358L16.9991 255.418Z" fill="white" fill-opacity="0.4"/>
<path d="M12.2043 230.599L12.1837 231.934C11.685 232.026 11.223 232.198 10.7977 232.452C10.3676 232.701 9.99101 233.018 9.66782 233.401C9.34463 233.784 9.09165 234.221 8.90888 234.71C8.7261 235.2 8.6303 235.731 8.62145 236.304C8.60727 237.223 8.83341 238.064 9.29988 238.829C9.76642 239.589 10.4601 240.204 11.381 240.673C12.2973 241.137 13.4253 241.379 14.7651 241.4C16.1144 241.42 17.2541 241.213 18.1842 240.778C19.1144 240.337 19.8244 239.745 20.3142 238.999C20.7993 238.249 21.049 237.415 21.0632 236.496C21.072 235.923 20.9926 235.389 20.8251 234.894C20.6575 234.399 20.4205 233.955 20.114 233.562C19.8028 233.169 19.4361 232.841 19.014 232.579C18.5919 232.312 18.1331 232.125 17.6376 232.018L17.6582 230.683C18.3239 230.812 18.943 231.044 19.5155 231.379C20.0834 231.71 20.5789 232.13 21.002 232.638C21.4251 233.142 21.7524 233.72 21.9838 234.372C22.2153 235.025 22.325 235.739 22.313 236.516C22.2941 237.737 21.972 238.816 21.3467 239.754C20.7166 240.691 19.8388 241.421 18.7131 241.944C17.5876 242.461 16.265 242.708 14.7453 242.685C13.2256 242.661 11.9112 242.374 10.8022 241.821C9.69319 241.264 8.84067 240.508 8.24456 239.552C7.64373 238.595 7.35274 237.506 7.3716 236.285C7.38359 235.508 7.51532 234.798 7.76678 234.153C8.01351 233.508 8.35849 232.94 8.80172 232.45C9.24029 231.955 9.74848 231.551 10.3263 231.238C10.9042 230.92 11.5302 230.707 12.2043 230.599Z" fill="white" fill-opacity="0.4"/>
<path d="M9.00624 227.415L7.81661 227.323L8.62945 216.807L9.81908 216.899L9.46384 221.495L22.7764 222.524L22.674 223.848L9.36148 222.819L9.00624 227.415Z" fill="white" fill-opacity="0.4"/>
<path d="M9.67349 207.578L9.93204 206.066L23.3106 203L23.3322 202.874L11.7323 195.537L11.9909 194.025L26.3283 196.477L26.1176 197.709L14.5455 195.73L14.5263 195.842L25.2713 202.658L25.0678 203.848L12.6686 206.707L12.6494 206.819L24.2216 208.798L24.0109 210.03L9.67349 207.578Z" fill="white" fill-opacity="0.4"/>
<path d="M27.2634 192.376L13.1281 188.946L15.1177 180.746L16.2772 181.028L14.6008 187.937L19.9222 189.228L21.4932 182.754L22.6527 183.035L21.0818 189.509L26.417 190.804L28.1269 183.757L29.2865 184.038L27.2634 192.376Z" fill="white" fill-opacity="0.4"/>
<path d="M30.7964 149.232L30.2947 150.469C29.7966 150.374 29.3034 150.369 28.815 150.452C28.3241 150.528 27.8586 150.687 27.4188 150.928C26.9789 151.168 26.5853 151.484 26.2379 151.874C25.8905 152.265 25.6092 152.726 25.3939 153.257C25.0488 154.108 24.9555 154.974 25.114 155.856C25.2743 156.733 25.6991 157.557 26.3883 158.327C27.075 159.091 28.0392 159.724 29.2809 160.228C30.5315 160.735 31.6691 160.953 32.6937 160.884C33.7202 160.809 34.5964 160.513 35.3225 159.995C36.0459 159.471 36.5802 158.783 36.9253 157.932C37.1406 157.401 37.2596 156.874 37.2822 156.352C37.3049 155.83 37.2444 155.33 37.1007 154.853C36.9526 154.374 36.7291 153.936 36.4303 153.539C36.1332 153.138 35.773 152.797 35.3496 152.518L35.8513 151.281C36.4255 151.642 36.9189 152.082 37.3315 152.602C37.7414 153.115 38.0518 153.686 38.2625 154.313C38.475 154.935 38.5713 155.593 38.5513 156.284C38.5314 156.976 38.3755 157.682 38.0837 158.402C37.6247 159.534 36.9343 160.424 36.0125 161.072C35.0862 161.718 34.0039 162.081 32.7656 162.162C31.529 162.238 30.2064 161.99 28.7979 161.419C27.3894 160.848 26.2679 160.105 25.4334 159.189C24.6006 158.269 24.0792 157.255 23.8689 156.148C23.6543 155.039 23.7765 153.919 24.2355 152.787C24.5273 152.067 24.9069 151.452 25.3744 150.942C25.8376 150.43 26.3644 150.025 26.9549 149.728C27.5427 149.425 28.1626 149.232 28.8146 149.148C29.4683 149.061 30.1289 149.089 30.7964 149.232Z" fill="white" fill-opacity="0.4"/>
<path d="M40.2178 135.819C41.5781 136.487 42.6432 137.31 43.413 138.288C44.1786 139.265 44.6292 140.314 44.7649 141.435C44.8983 142.55 44.6951 143.658 44.1551 144.759C43.6151 145.86 42.8624 146.701 41.897 147.283C40.9294 147.858 39.8252 148.141 38.5842 148.134C37.3411 148.12 36.0394 147.78 34.6791 147.112C33.3187 146.445 32.2547 145.625 31.4871 144.653C30.7172 143.674 30.2666 142.625 30.1352 141.506C29.9996 140.385 30.2007 139.276 30.7386 138.179C31.2787 137.078 32.0324 136.24 33 135.665C33.9654 135.084 35.0706 134.798 36.3158 134.807C37.5568 134.815 38.8574 135.152 40.2178 135.819ZM39.6486 136.98C38.4795 136.407 37.3825 136.111 36.3575 136.094C35.3282 136.074 34.4267 136.294 33.6531 136.753C32.8795 137.212 32.2821 137.871 31.8609 138.729C31.4419 139.584 31.2876 140.458 31.3982 141.35C31.5088 142.243 31.8838 143.091 32.5231 143.895C33.1645 144.695 34.0718 145.383 35.2451 145.958C36.4142 146.532 37.5112 146.827 38.5363 146.845C39.5613 146.862 40.4627 146.642 41.2406 146.185C42.0142 145.726 42.6116 145.067 43.0328 144.209C43.4539 143.35 43.6092 142.474 43.4986 141.582C43.3901 140.685 43.0151 139.836 42.3737 139.036C41.7281 138.235 40.8197 137.549 39.6486 136.98Z" fill="white" fill-opacity="0.4"/>
<path d="M41.3522 119.079L53.9298 126.385L53.2806 127.503L38.4317 128.816L38.3746 128.914L48.9071 135.032L48.24 136.18L35.6624 128.875L36.3081 127.763L51.1835 126.432L51.2406 126.334L40.6958 120.209L41.3522 119.079Z" fill="white" fill-opacity="0.4"/>
<path d="M44.8996 115.622L43.9097 114.956L49.7979 106.206L50.7878 106.872L48.2144 110.696L59.2921 118.151L58.5506 119.253L47.4729 111.798L44.8996 115.622Z" fill="white" fill-opacity="0.4"/>
<path d="M63.2813 112.329L62.4379 113.436L54.071 100.415L54.9315 99.2848L69.7095 103.887L68.8661 104.995L55.9045 100.856L55.8442 100.935L63.2813 112.329ZM59.4522 108.155L63.8237 102.414L64.773 103.136L60.4015 108.877L59.4522 108.155Z" fill="white" fill-opacity="0.4"/>
<path d="M71.7955 86.0688L70.9187 87.0759C70.4785 86.8244 70.014 86.6585 69.5251 86.5782C69.0358 86.4913 68.5441 86.49 68.0499 86.5746C67.5557 86.6591 67.0809 86.8295 66.6254 87.0859C66.1699 87.3422 65.7541 87.6865 65.3779 88.1186C64.7747 88.8114 64.4048 89.6005 64.268 90.4858C64.1343 91.3677 64.2682 92.2847 64.6697 93.2369C65.0707 94.1824 65.7765 95.0951 66.7871 95.9749C67.8049 96.861 68.8096 97.4375 69.8013 97.7046C70.7962 97.968 71.7211 97.9728 72.5761 97.719C73.4307 97.4586 74.1595 96.9819 74.7627 96.2892C75.1389 95.8571 75.4226 95.3978 75.6138 94.9114C75.805 94.4249 75.9102 93.9327 75.9295 93.4347C75.9452 92.9335 75.8762 92.4467 75.7227 91.974C75.5723 91.4978 75.3423 91.0589 75.0326 90.6575L75.9094 89.6505C76.3352 90.1781 76.6587 90.7548 76.8798 91.3805C77.1005 91.9995 77.2085 92.6398 77.2039 93.3012C77.2025 93.9591 77.0798 94.612 76.836 95.2598C76.5922 95.9076 76.2153 96.5243 75.7054 97.1099C74.9033 98.0313 73.961 98.6485 72.8785 98.9617C71.7925 99.2717 70.6509 99.2634 69.4536 98.9368C68.2595 98.6066 67.0893 97.9425 65.943 96.9445C64.7967 95.9465 63.9778 94.8788 63.4864 93.7416C62.998 92.6007 62.8344 91.4727 62.9956 90.3574C63.1531 89.239 63.633 88.2191 64.4351 87.2978C64.945 86.7121 65.504 86.254 66.112 85.9233C66.7165 85.5895 67.3463 85.3781 68.0013 85.2892C68.6558 85.1936 69.3048 85.2125 69.9483 85.3458C70.595 85.4756 71.2107 85.7166 71.7955 86.0688Z" fill="white" fill-opacity="0.4"/>
<path d="M71.3696 81.6021L70.5198 80.7646L77.9232 73.2528L78.773 74.0904L75.5375 77.3733L85.0473 86.7459L84.115 87.6919L74.6052 78.3192L71.3696 81.6021Z" fill="white" fill-opacity="0.4"/>
<path d="M84.5535 66.9712L85.7251 65.9808L97.9349 72.2503L98.0325 72.1678L93.8826 59.0847L95.0542 58.0944L104.445 69.2025L103.49 70.0095L95.9107 61.0438L95.8239 61.1171L99.6552 73.2512L98.7332 74.0307L87.406 68.2333L87.3192 68.3066L94.8984 77.2724L93.9438 78.0793L84.5535 66.9712Z" fill="white" fill-opacity="0.4"/>
<path d="M107.215 67.1048L98.5733 55.405L105.36 50.392L106.069 51.3517L100.35 55.5757L103.604 59.9802L108.962 56.0221L109.671 56.9819L104.313 60.94L107.575 65.356L113.407 61.0476L114.116 62.0074L107.215 67.1048Z" fill="white" fill-opacity="0.4"/>
<path d="M137.619 36.2016L136.441 36.8292C136.119 36.4371 135.745 36.1163 135.317 35.8668C134.891 35.6108 134.432 35.4341 133.94 35.3366C133.448 35.239 132.944 35.2287 132.427 35.3055C131.91 35.3823 131.399 35.5554 130.893 35.8247C130.082 36.2564 129.455 36.8614 129.011 37.6396C128.571 38.4155 128.369 39.3199 128.404 40.3527C128.441 41.379 128.774 42.4836 129.404 43.6663C130.038 44.8574 130.771 45.7547 131.602 46.3582C132.437 46.9595 133.299 47.2943 134.189 47.3625C135.08 47.4244 135.931 47.2394 136.742 46.8077C137.247 46.5384 137.676 46.2107 138.029 45.8246C138.381 45.4386 138.655 45.0164 138.851 44.558C139.044 44.0955 139.154 43.6161 139.179 43.1198C139.209 42.6213 139.151 42.1293 139.005 41.6437L140.183 41.0161C140.392 41.661 140.489 42.3152 140.472 42.9786C140.457 43.6356 140.329 44.2722 140.089 44.8885C139.852 45.5024 139.505 46.0685 139.046 46.5865C138.587 47.1045 138.014 47.546 137.329 47.911C136.251 48.4852 135.15 48.7253 134.027 48.6312C132.902 48.533 131.839 48.1176 130.837 47.385C129.84 46.6502 128.984 45.6121 128.269 44.2705C127.555 42.929 127.171 41.6393 127.118 40.4015C127.07 39.1615 127.319 38.0494 127.868 37.0652C128.415 36.0768 129.227 35.2955 130.305 34.7213C130.991 34.3564 131.677 34.128 132.363 34.0363C133.046 33.9403 133.71 33.9678 134.354 34.1186C134.999 34.263 135.599 34.5124 136.152 34.8667C136.71 35.2188 137.199 35.6638 137.619 36.2016Z" fill="white" fill-opacity="0.4"/>
<path d="M153.536 31.8821C154.152 33.2663 154.442 34.5808 154.405 35.8254C154.366 37.0658 154.039 38.1597 153.425 39.1071C152.812 40.0483 151.946 40.7682 150.825 41.2669C149.705 41.7656 148.588 41.9285 147.475 41.7556C146.363 41.5765 145.334 41.0862 144.387 40.2849C143.441 39.4773 142.661 38.3814 142.045 36.9971C141.428 35.6129 141.138 34.3016 141.172 33.0632C141.209 31.8185 141.536 30.7246 142.152 29.7815C142.767 28.8341 143.633 28.112 144.749 27.6152C145.869 27.1165 146.985 26.9567 148.096 27.1359C149.209 27.3088 150.241 27.7981 151.19 28.6038C152.138 29.4051 152.92 30.4979 153.536 31.8821ZM152.355 32.4078C151.825 31.2182 151.173 30.2881 150.398 29.6174C149.62 28.9424 148.788 28.533 147.9 28.3893C147.012 28.2456 146.131 28.3682 145.257 28.7572C144.387 29.1442 143.709 29.7157 143.221 30.4717C142.734 31.2277 142.478 32.1192 142.453 33.1461C142.432 34.1711 142.688 35.2805 143.219 36.4744C143.749 37.6639 144.401 38.594 145.176 39.2647C145.952 39.9354 146.784 40.3448 147.674 40.4928C148.562 40.6365 149.443 40.5139 150.317 40.125C151.191 39.736 151.871 39.1635 152.359 38.4075C152.851 37.6496 153.107 36.7581 153.128 35.7331C153.146 34.7038 152.889 33.5954 152.355 32.4078Z" fill="white" fill-opacity="0.4"/>
<path d="M165.285 19.6971L170.241 33.3721L169.026 33.8126L156.796 25.2893L156.69 25.328L160.84 36.7795L159.591 37.232L154.635 23.557L155.844 23.119L168.105 31.6459L168.212 31.6072L164.057 20.1424L165.285 19.6971Z" fill="white" fill-opacity="0.4"/>
<path d="M169.313 19.5873L168.979 18.4418L179.104 15.4908L179.438 16.6363L175.013 17.926L178.749 30.745L177.474 31.1166L173.738 18.2976L169.313 19.5873Z" fill="white" fill-opacity="0.4"/>
<path d="M186.13 28.6485L184.773 28.9562L186.719 13.601L188.104 13.2872L196.479 26.3038L195.121 26.6114L187.841 15.1163L187.744 15.1383L186.13 28.6485ZM185.875 22.9898L192.912 21.3952L193.176 22.5589L186.138 24.1535L185.875 22.9898Z" fill="white" fill-opacity="0.4"/>
<path d="M209.102 14.0276L207.783 14.2374C207.607 13.7621 207.357 13.3368 207.033 12.9616C206.714 12.5809 206.338 12.2645 205.904 12.0122C205.471 11.76 204.997 11.586 204.484 11.4904C203.97 11.3948 203.43 11.3921 202.864 11.4821C201.957 11.6265 201.167 11.9944 200.494 12.5858C199.826 13.1764 199.34 13.9657 199.037 14.9536C198.738 15.9361 198.694 17.0891 198.904 18.4124C199.116 19.745 199.517 20.8319 200.107 21.673C200.701 22.5134 201.407 23.1105 202.226 23.4644C203.048 23.813 203.913 23.915 204.82 23.7706C205.386 23.6805 205.898 23.5103 206.357 23.2599C206.816 23.0095 207.212 22.6994 207.547 22.3298C207.88 21.9555 208.14 21.5378 208.325 21.0768C208.515 20.615 208.62 20.1308 208.641 19.6242L209.959 19.4143C209.947 20.0922 209.825 20.7421 209.593 21.3639C209.366 21.9803 209.038 22.5407 208.61 23.0451C208.186 23.5488 207.674 23.9709 207.071 24.3113C206.468 24.6517 205.783 24.883 205.017 25.0051C203.81 25.1971 202.691 25.0659 201.66 24.6116C200.628 24.1526 199.758 23.4137 199.049 22.3951C198.345 21.3756 197.874 20.1154 197.635 18.6144C197.396 17.1135 197.453 15.7691 197.805 14.5815C198.163 13.3931 198.761 12.4229 199.6 11.6708C200.439 10.9141 201.461 10.4397 202.668 10.2477C203.434 10.1256 204.157 10.1328 204.836 10.2693C205.514 10.4012 206.132 10.6431 206.692 10.9951C207.255 11.3417 207.741 11.7726 208.149 12.2878C208.561 12.8023 208.879 13.3822 209.102 14.0276Z" fill="white" fill-opacity="0.4"/>
<path d="M211.34 10.3314L211.225 9.14372L221.723 8.12859L221.837 9.31623L217.249 9.75988L218.535 23.0502L217.213 23.178L215.928 9.88771L211.34 10.3314Z" fill="white" fill-opacity="0.4"/>
<path d="M232.793 7.45455H234.327L239.604 20.125H239.732L245.009 7.45455H246.543V22H245.293V10.2599H245.179L240.271 22H239.064L234.156 10.2599H234.043V22H232.793V7.45455Z" fill="white" fill-opacity="0.4"/>
<path d="M250.291 22.1921L251.245 7.67792L259.664 8.23091L259.586 9.42152L252.492 8.95558L252.133 14.4197L258.781 14.8563L258.702 16.0469L252.055 15.6103L251.695 21.0885L258.931 21.5638L258.853 22.7544L250.291 22.1921Z" fill="white" fill-opacity="0.4"/>
<path d="M294.603 18.4846L293.298 18.1995C293.307 17.6926 293.229 17.2055 293.065 16.7382C292.906 16.2673 292.671 15.8354 292.359 15.4426C292.048 15.0498 291.67 14.7152 291.227 14.4389C290.783 14.1626 290.281 13.9633 289.722 13.8409C288.824 13.6448 287.954 13.6994 287.112 14.0049C286.275 14.3113 285.535 14.8693 284.892 15.6788C284.256 16.4848 283.795 17.5423 283.508 18.8513C283.22 20.1696 283.197 21.3278 283.44 22.3259C283.686 23.3249 284.127 24.1384 284.76 24.7664C285.399 25.3907 286.167 25.801 287.064 25.9971C287.624 26.1195 288.163 26.1476 288.682 26.0816C289.2 26.0156 289.682 25.8715 290.129 25.6491C290.576 25.4221 290.969 25.1277 291.31 24.766C291.656 24.4053 291.93 23.9927 292.133 23.5283L293.438 23.8134C293.18 24.4403 292.829 25.0011 292.387 25.4956C291.95 25.9866 291.44 26.3889 290.858 26.7027C290.28 27.0175 289.649 27.2235 288.963 27.3209C288.278 27.4183 287.556 27.3841 286.798 27.2183C285.604 26.9574 284.61 26.4275 283.815 25.6286C283.022 24.8251 282.481 23.8198 282.192 22.6129C281.908 21.407 281.928 20.0617 282.253 18.5768C282.577 17.092 283.12 15.8609 283.881 14.8835C284.647 13.9071 285.558 13.2217 286.614 12.8272C287.67 12.4281 288.795 12.3589 289.989 12.6198C290.747 12.7856 291.417 13.0557 292 13.4301C292.583 13.7999 293.071 14.2507 293.463 14.7824C293.862 15.3105 294.157 15.8888 294.349 16.5173C294.546 17.1467 294.63 17.8025 294.603 18.4846Z" fill="white" fill-opacity="0.4"/>
<path d="M308.57 25.2527C308.146 26.7073 307.518 27.8978 306.685 28.8241C305.855 29.7458 304.898 30.3697 303.817 30.6957C302.742 31.0185 301.615 31.0083 300.438 30.6652C299.26 30.322 298.303 29.7248 297.564 28.8734C296.832 28.0189 296.363 26.9796 296.158 25.7558C295.958 24.5288 296.07 23.1879 296.494 21.7333C296.918 20.2787 297.543 19.0898 298.369 18.1667C299.201 17.2404 300.158 16.6165 301.238 16.2951C302.319 15.9691 303.446 15.977 304.619 16.3188C305.796 16.662 306.751 17.2608 307.483 18.1154C308.222 18.9667 308.693 20.0066 308.897 21.235C309.103 22.4588 308.994 23.798 308.57 25.2527ZM307.329 24.891C307.693 23.6409 307.796 22.5095 307.637 21.4966C307.48 20.4792 307.109 19.6288 306.524 18.9454C305.939 18.262 305.187 17.7865 304.269 17.5189C303.355 17.2526 302.468 17.2505 301.608 17.5126C300.747 17.7748 299.976 18.2897 299.293 19.0574C298.615 19.8265 298.094 20.8384 297.728 22.093C297.364 23.3431 297.261 24.4745 297.419 25.4874C297.578 26.5002 297.949 27.3506 298.533 28.0386C299.118 28.722 299.869 29.1975 300.788 29.4651C301.706 29.7327 302.595 29.7354 303.456 29.4733C304.321 29.2125 305.092 28.6976 305.77 27.9285C306.449 27.1549 306.969 26.1424 307.329 24.891Z" fill="white" fill-opacity="0.4"/>
<path d="M325.611 23.6302L320.552 37.2676L319.34 36.818L315.519 22.4092L315.412 22.3697L311.176 33.7897L309.931 33.3278L314.99 19.6903L316.195 20.1374L320.038 34.5695L320.144 34.609L324.385 23.1757L325.611 23.6302Z" fill="white" fill-opacity="0.4"/>
<path d="M328.594 26.0979L329.08 25.0078L338.715 29.2968L338.23 30.3869L334.019 28.5124L328.589 40.7108L327.376 40.1707L332.805 27.9723L328.594 26.0979Z" fill="white" fill-opacity="0.4"/>
<path d="M335.16 43.681L333.924 43.0404L345.315 32.5617L346.577 33.2154L344.58 48.5641L343.344 47.9235L345.196 34.4437L345.108 34.3979L335.16 43.681ZM338.615 39.192L345.021 42.5128L344.472 43.5721L338.066 40.2514L338.615 39.192Z" fill="white" fill-opacity="0.4"/>
<path d="M362.751 47.6967L361.609 47.0049C361.782 46.5282 361.866 46.0421 361.861 45.5468C361.864 45.0498 361.781 44.5651 361.613 44.0926C361.445 43.6201 361.196 43.1814 360.866 42.7764C360.535 42.3714 360.125 42.0205 359.635 41.7237C358.849 41.2478 358.009 41.0181 357.113 41.0347C356.221 41.0537 355.341 41.3423 354.471 41.9006C353.608 42.4572 352.829 43.3086 352.135 44.4547C351.436 45.6089 351.04 46.6974 350.946 47.7202C350.856 48.7454 351.01 49.6575 351.406 50.4566C351.809 51.2541 352.403 51.8908 353.188 52.3667C353.678 52.6635 354.179 52.8645 354.691 52.9698C355.203 53.0751 355.706 53.0947 356.2 53.0285C356.697 52.9584 357.165 52.8073 357.604 52.5752C358.048 52.3457 358.441 52.044 358.783 51.6703L359.925 52.3621C359.478 52.8718 358.965 53.289 358.387 53.6139C357.814 53.9371 357.202 54.1529 356.55 54.2614C355.901 54.3724 355.237 54.3631 354.557 54.2336C353.877 54.104 353.205 53.8381 352.541 53.4358C351.496 52.8029 350.727 51.9799 350.233 50.9669C349.742 49.9498 349.555 48.8236 349.672 47.5881C349.794 46.3552 350.248 45.0887 351.036 43.7887C351.823 42.4887 352.735 41.4994 353.772 40.8209C354.812 40.1448 355.896 39.7908 357.022 39.759C358.151 39.7231 359.238 40.0217 360.283 40.6546C360.947 41.0569 361.494 41.5293 361.924 42.0719C362.356 42.6105 362.672 43.1949 362.871 43.825C363.077 44.4536 363.17 45.0963 363.148 45.7531C363.131 46.4124 362.998 47.0603 362.751 47.6967Z" fill="white" fill-opacity="0.4"/>
<path d="M367.192 46.5764L367.872 45.5964L376.535 51.612L375.855 52.5921L372.069 49.963L364.453 60.9304L363.362 60.1729L370.978 49.2055L367.192 46.5764Z" fill="white" fill-opacity="0.4"/>
<path d="M383.93 57.1255L385.105 58.1117L381.003 71.2097L381.101 71.2919L393.288 64.978L394.463 65.9641L385.113 77.1064L384.156 76.3028L391.702 67.3096L391.615 67.2366L380.309 73.0751L379.384 72.299L383.171 60.1511L383.084 60.0781L375.538 69.0713L374.58 68.2678L383.93 57.1255Z" fill="white" fill-opacity="0.4"/>
<path d="M387.658 79.4816L397.717 68.9746L403.812 74.8094L402.987 75.6713L397.851 70.7549L394.065 74.7104L398.877 79.3173L398.052 80.1792L393.239 75.5723L389.443 79.5381L394.681 84.5526L393.856 85.4145L387.658 79.4816Z" fill="white" fill-opacity="0.4"/>
<path d="M424.073 105.195L423.256 104.138C423.589 103.756 423.842 103.332 424.016 102.869C424.197 102.406 424.294 101.924 424.308 101.423C424.321 100.921 424.247 100.422 424.084 99.9256C423.922 99.4289 423.665 98.9539 423.315 98.5006C422.753 97.7739 422.051 97.2571 421.209 96.9502C420.371 96.647 419.445 96.5995 418.433 96.8074C417.427 97.0162 416.395 97.5304 415.334 98.3499C414.267 99.1753 413.505 100.048 413.05 100.969C412.597 101.893 412.412 102.799 412.494 103.687C412.583 104.576 412.908 105.384 413.47 106.111C413.82 106.564 414.216 106.932 414.655 107.214C415.095 107.497 415.557 107.696 416.042 107.812C416.53 107.925 417.021 107.953 417.515 107.894C418.011 107.84 418.487 107.7 418.941 107.474L419.757 108.531C419.157 108.845 418.528 109.05 417.871 109.145C417.221 109.241 416.572 109.222 415.924 109.088C415.279 108.958 414.663 108.711 414.075 108.345C413.487 107.98 412.956 107.49 412.481 106.875C411.734 105.909 411.312 104.864 411.217 103.742C411.124 102.616 411.355 101.498 411.909 100.387C412.466 99.2806 413.346 98.2625 414.548 97.3329C415.751 96.4033 416.958 95.8085 418.169 95.5484C419.383 95.292 420.521 95.3516 421.584 95.7273C422.65 96.1 423.557 96.7696 424.304 97.7361C424.779 98.3505 425.119 98.9881 425.325 99.649C425.534 100.307 425.618 100.966 425.578 101.626C425.544 102.286 425.399 102.919 425.142 103.524C424.889 104.133 424.532 104.69 424.073 105.195Z" fill="white" fill-opacity="0.4"/>
<path d="M430.826 119.943C429.566 120.784 428.319 121.292 427.086 121.466C425.857 121.637 424.724 121.5 423.686 121.054C422.655 120.61 421.799 119.878 421.118 118.858C420.437 117.838 420.087 116.765 420.07 115.638C420.058 114.512 420.368 113.415 420.997 112.346C421.633 111.278 422.582 110.323 423.842 109.482C425.102 108.64 426.345 108.132 427.572 107.957C428.805 107.782 429.938 107.92 430.972 108.368C432.009 108.814 432.867 109.545 433.546 110.561C434.227 111.581 434.573 112.653 434.584 113.779C434.602 114.905 434.294 116.005 433.66 117.077C433.031 118.146 432.086 119.101 430.826 119.943ZM430.108 118.868C431.191 118.145 431.997 117.344 432.527 116.467C433.061 115.587 433.324 114.697 433.315 113.797C433.307 112.898 433.037 112.05 432.506 111.255C431.978 110.463 431.3 109.891 430.472 109.538C429.645 109.186 428.723 109.084 427.706 109.233C426.693 109.386 425.642 109.825 424.556 110.551C423.473 111.274 422.666 112.074 422.136 112.952C421.606 113.829 421.344 114.719 421.348 115.621C421.357 116.521 421.626 117.368 422.157 118.164C422.688 118.959 423.368 119.533 424.195 119.886C425.025 120.243 425.947 120.345 426.961 120.192C427.979 120.036 429.028 119.595 430.108 118.868Z" fill="white" fill-opacity="0.4"/>
<path d="M444.699 129.285L432.067 136.498L431.426 135.376L437.742 121.873L437.686 121.774L427.109 127.814L426.45 126.661L439.081 119.448L439.719 120.564L433.405 134.099L433.461 134.198L444.051 128.151L444.699 129.285Z" fill="white" fill-opacity="0.4"/>
<path d="M445.388 133.087L446.459 132.562L451.103 142.031L450.032 142.556L448.002 138.418L436.014 144.298L435.429 143.105L447.417 137.226L445.388 133.087Z" fill="white" fill-opacity="0.4"/>
<path d="M439.648 151.969L439.116 150.682L454.579 150.005L455.122 151.317L443.709 161.772L443.176 160.486L453.275 151.368L453.237 151.276L439.648 151.969ZM445.183 150.76L447.944 157.427L446.841 157.884L444.08 151.217L445.183 150.76Z" fill="white" fill-opacity="0.4"/>
<path d="M457.77 171.747L457.339 170.483C457.778 170.229 458.154 169.91 458.469 169.527C458.79 169.148 459.037 168.723 459.212 168.253C459.387 167.783 459.478 167.287 459.485 166.764C459.491 166.242 459.402 165.709 459.217 165.167C458.92 164.298 458.423 163.582 457.726 163.019C457.03 162.461 456.17 162.117 455.145 161.987C454.126 161.859 452.982 162.012 451.714 162.445C450.437 162.88 449.434 163.46 448.706 164.184C447.979 164.913 447.51 165.71 447.301 166.577C447.097 167.447 447.144 168.317 447.441 169.186C447.626 169.728 447.881 170.204 448.206 170.614C448.531 171.023 448.904 171.361 449.325 171.628C449.75 171.893 450.206 172.077 450.692 172.182C451.179 172.29 451.674 172.311 452.177 172.245L452.608 173.509C451.938 173.612 451.277 173.603 450.625 173.48C449.979 173.361 449.371 173.133 448.801 172.797C448.232 172.466 447.729 172.032 447.291 171.496C446.853 170.96 446.509 170.325 446.258 169.59C445.863 168.434 445.802 167.309 446.074 166.215C446.351 165.12 446.931 164.137 447.814 163.265C448.699 162.398 449.86 161.719 451.299 161.228C452.737 160.737 454.072 160.564 455.302 160.71C456.534 160.86 457.592 161.284 458.476 161.983C459.364 162.68 460.005 163.607 460.4 164.763C460.651 165.498 460.767 166.212 460.748 166.903C460.733 167.594 460.6 168.245 460.348 168.856C460.103 169.47 459.761 170.022 459.323 170.512C458.886 171.006 458.369 171.418 457.77 171.747Z" fill="white" fill-opacity="0.4"/>
<path d="M461.675 173.048L462.825 172.732L465.622 182.901L464.472 183.217L463.249 178.773L450.375 182.314L450.023 181.034L462.897 177.493L461.675 173.048Z" fill="white" fill-opacity="0.4"/>
<path d="M467.72 191.688L467.99 193.198L456.447 200.623L456.47 200.749L469.871 203.713L470.141 205.223L455.823 207.784L455.603 206.553L467.16 204.486L467.14 204.374L454.719 201.611L454.506 200.422L465.199 193.524L465.179 193.412L453.622 195.479L453.402 194.249L467.72 191.688Z" fill="white" fill-opacity="0.4"/>
<path d="M456.365 212.161L470.826 210.594L471.735 218.982L470.549 219.11L469.783 212.042L464.339 212.632L465.057 219.256L463.871 219.384L463.153 212.761L457.695 213.352L458.476 220.562L457.29 220.69L456.365 212.161Z" fill="white" fill-opacity="0.4"/>
</svg>
