<svg width="1165" height="194" viewBox="0 0 1165 194" fill="none" xmlns="http://www.w3.org/2000/svg">
<path d="M51.8491 191H12.5132L12.772 170.685H51.8491C65.3062 170.685 76.5203 167.882 85.4917 162.274C94.4631 156.581 101.192 148.645 105.677 138.466C110.249 128.201 112.535 116.21 112.535 102.494V90.978C112.535 80.1951 111.241 70.62 108.653 62.2524C106.065 53.7987 102.27 46.682 97.2666 40.9023C92.2633 35.0365 86.1387 30.5939 78.8926 27.5747C71.7327 24.5555 63.4946 23.0459 54.1782 23.0459H11.7368V2.60156H54.1782C66.5138 2.60156 77.7712 4.67188 87.9502 8.8125C98.1292 12.8669 106.885 18.7759 114.217 26.5396C121.636 34.217 127.329 43.5334 131.297 54.4888C135.265 65.3579 137.25 77.6073 137.25 91.2368V102.494C137.25 116.124 135.265 128.416 131.297 139.372C127.329 150.241 121.593 159.514 114.088 167.191C106.669 174.869 97.6979 180.778 87.1738 184.918C76.736 188.973 64.9611 191 51.8491 191ZM25.8408 2.60156V191H0.867676V2.60156H25.8408ZM282.56 2.60156H307.403V130.055C307.403 144.202 304.255 155.977 297.958 165.38C291.66 174.783 283.293 181.856 272.855 186.601C262.503 191.259 251.246 193.588 239.083 193.588C226.316 193.588 214.757 191.259 204.405 186.601C194.14 181.856 185.988 174.783 179.95 165.38C173.998 155.977 171.021 144.202 171.021 130.055V2.60156H195.736V130.055C195.736 139.889 197.547 147.998 201.17 154.381C204.793 160.765 209.84 165.509 216.31 168.615C222.866 171.72 230.457 173.273 239.083 173.273C247.796 173.273 255.387 171.72 261.856 168.615C268.412 165.509 273.502 160.765 277.125 154.381C280.748 147.998 282.56 139.889 282.56 130.055V2.60156ZM413.766 102.882H366.019L365.76 82.8262H409.107C416.267 82.8262 422.521 81.6185 427.87 79.2031C433.218 76.7878 437.359 73.3372 440.292 68.8516C443.311 64.2796 444.82 58.8451 444.82 52.5479C444.82 45.6468 443.483 40.0397 440.809 35.7266C438.221 31.3271 434.21 28.1354 428.775 26.1514C423.427 24.0811 416.612 23.0459 408.331 23.0459H371.583V191H346.61V2.60156H408.331C417.993 2.60156 426.619 3.59359 434.21 5.57764C441.801 7.47542 448.228 10.4946 453.49 14.6353C458.838 18.6896 462.892 23.8654 465.653 30.1626C468.413 36.4598 469.793 44.0078 469.793 52.8066C469.793 60.5703 467.809 67.6007 463.841 73.8979C459.873 80.1089 454.352 85.1984 447.279 89.1665C440.292 93.1346 432.097 95.6794 422.694 96.8008L413.766 102.882ZM412.601 191H356.185L370.289 170.685H412.601C420.537 170.685 427.266 169.305 432.787 166.544C438.394 163.784 442.664 159.902 445.597 154.899C448.53 149.809 449.996 143.814 449.996 136.913C449.996 129.926 448.745 123.887 446.244 118.798C443.742 113.708 439.817 109.783 434.469 107.023C429.12 104.263 422.219 102.882 413.766 102.882H378.182L378.441 82.8262H427.093L432.398 90.0723C441.456 90.8486 449.133 93.4365 455.431 97.8359C461.728 102.149 466.515 107.67 469.793 114.398C473.158 121.127 474.84 128.546 474.84 136.654C474.84 148.386 472.252 158.306 467.076 166.415C461.987 174.438 454.784 180.562 445.467 184.789C436.151 188.93 425.195 191 412.601 191ZM581.461 19.2935L519.093 191H493.602L565.416 2.60156H581.849L581.461 19.2935ZM633.736 191L571.239 19.2935L570.851 2.60156H587.284L659.356 191H633.736ZM630.501 121.256V141.701H524.657V121.256H630.501ZM784.999 143.383C784.999 138.983 784.308 135.102 782.928 131.737C781.634 128.287 779.305 125.181 775.941 122.421C772.663 119.66 768.091 117.029 762.225 114.528C756.445 112.026 749.113 109.481 740.228 106.894C730.912 104.133 722.501 101.071 714.996 97.7065C707.491 94.256 701.065 90.3311 695.716 85.9316C690.368 81.5322 686.271 76.4858 683.424 70.7925C680.577 65.0991 679.154 58.5863 679.154 51.2539C679.154 43.9215 680.663 37.1499 683.683 30.939C686.702 24.728 691.015 19.3366 696.622 14.7646C702.315 10.1064 709.087 6.4834 716.937 3.89551C724.787 1.30762 733.543 0.0136719 743.204 0.0136719C757.351 0.0136719 769.342 2.73096 779.176 8.16553C789.096 13.5138 796.644 20.5443 801.82 29.2568C806.996 37.8831 809.583 47.1133 809.583 56.9473H784.74C784.74 49.8737 783.23 43.6196 780.211 38.1851C777.192 32.6642 772.62 28.3511 766.495 25.2456C760.37 22.0539 752.607 20.458 743.204 20.458C734.319 20.458 726.987 21.7951 721.207 24.4692C715.427 27.1434 711.114 30.7664 708.268 35.3384C705.507 39.9103 704.127 45.1292 704.127 50.9951C704.127 54.9632 704.946 58.5863 706.585 61.8643C708.311 65.056 710.942 68.0321 714.479 70.7925C718.102 73.5529 722.674 76.0977 728.194 78.4268C733.801 80.7559 740.487 82.9987 748.25 85.1553C758.947 88.1745 768.177 91.5387 775.941 95.248C783.705 98.9574 790.088 103.141 795.091 107.799C800.181 112.371 803.933 117.59 806.349 123.456C808.85 129.236 810.101 135.792 810.101 143.124C810.101 150.801 808.548 157.746 805.443 163.957C802.337 170.167 797.895 175.473 792.115 179.872C786.336 184.271 779.391 187.679 771.283 190.094C763.26 192.423 754.289 193.588 744.369 193.588C735.656 193.588 727.073 192.38 718.619 189.965C710.252 187.549 702.617 183.926 695.716 179.096C688.902 174.265 683.424 168.313 679.283 161.239C675.229 154.079 673.202 145.798 673.202 136.396H698.045C698.045 142.865 699.296 148.429 701.798 153.087C704.299 157.659 707.707 161.455 712.02 164.474C716.419 167.493 721.38 169.736 726.9 171.203C732.507 172.583 738.33 173.273 744.369 173.273C753.081 173.273 760.457 172.065 766.495 169.65C772.534 167.235 777.105 163.784 780.211 159.298C783.403 154.813 784.999 149.507 784.999 143.383ZM986.983 90.8486V102.753C986.983 116.9 985.215 129.581 981.678 140.795C978.141 152.009 973.052 161.541 966.41 169.391C959.767 177.241 951.788 183.236 942.472 187.377C933.242 191.518 922.89 193.588 911.417 193.588C900.289 193.588 890.067 191.518 880.75 187.377C871.52 183.236 863.498 177.241 856.683 169.391C849.955 161.541 844.736 152.009 841.026 140.795C837.317 129.581 835.462 116.9 835.462 102.753V90.8486C835.462 76.7015 837.274 64.064 840.897 52.936C844.606 41.7218 849.825 32.1898 856.554 24.3398C863.282 16.4036 871.262 10.3652 880.492 6.22461C889.808 2.08398 900.03 0.0136719 911.158 0.0136719C922.631 0.0136719 932.983 2.08398 942.213 6.22461C951.529 10.3652 959.509 16.4036 966.151 24.3398C972.879 32.1898 978.012 41.7218 981.549 52.936C985.172 64.064 986.983 76.7015 986.983 90.8486ZM962.269 102.753V90.5898C962.269 79.3757 961.104 69.4554 958.775 60.8291C956.533 52.2028 953.211 44.9567 948.812 39.0908C944.413 33.2249 939.021 28.7824 932.638 25.7632C926.34 22.744 919.181 21.2344 911.158 21.2344C903.395 21.2344 896.364 22.744 890.067 25.7632C883.856 28.7824 878.508 33.2249 874.022 39.0908C869.623 44.9567 866.215 52.2028 863.8 60.8291C861.384 69.4554 860.177 79.3757 860.177 90.5898V102.753C860.177 114.053 861.384 124.06 863.8 132.772C866.215 141.399 869.666 148.688 874.151 154.64C878.723 160.506 884.115 164.949 890.326 167.968C896.623 170.987 903.653 172.497 911.417 172.497C919.526 172.497 926.729 170.987 933.026 167.968C939.323 164.949 944.628 160.506 948.941 154.64C953.341 148.688 956.662 141.399 958.905 132.772C961.148 124.06 962.269 114.053 962.269 102.753ZM1082.35 162.404L1137.86 2.60156H1164.9L1095.16 191H1075.88L1082.35 162.404ZM1030.46 2.60156L1085.45 162.404L1092.31 191H1073.03L1003.42 2.60156H1030.46Z" fill="white"/>
</svg>
