<svg width="200" height="200" viewBox="0 0 200 200" fill="none" xmlns="http://www.w3.org/2000/svg">
<rect width="200" height="200" rx="100" fill="black"/>
<path d="M95.875 144H76.4375L76.5625 131.562H95.875C101.5 131.562 106.208 130.333 110 127.875C113.833 125.417 116.708 121.896 118.625 117.312C120.583 112.729 121.562 107.271 121.562 100.938V96C121.562 91.0833 121 86.7292 119.875 82.9375C118.792 79.1458 117.167 75.9583 115 73.375C112.875 70.7917 110.25 68.8333 107.125 67.5C104.042 66.1667 100.479 65.5 96.4375 65.5H76.0625V53H96.4375C102.479 53 108 54.0208 113 56.0625C118 58.0625 122.312 60.9583 125.938 64.75C129.604 68.5417 132.417 73.0833 134.375 78.375C136.333 83.6667 137.312 89.5833 137.312 96.125V100.938C137.312 107.479 136.333 113.396 134.375 118.688C132.417 123.979 129.604 128.521 125.938 132.312C122.271 136.062 117.896 138.958 112.812 141C107.771 143 102.125 144 95.875 144ZM85.125 53V144H69.4375V53H85.125Z" fill="white"/>
</svg>
